<mxfile host="65bd71144e">
    <diagram id="VMHIxuENqEShhDIMAyoH" name="Page-1">
        <mxGraphModel dx="3206" dy="2704" grid="0" gridSize="10" guides="1" tooltips="1" connect="1" arrows="1" fold="1" page="1" pageScale="1" pageWidth="850" pageHeight="1100" background="#ffffff" math="0" shadow="0">
            <root>
                <mxCell id="0"/>
                <mxCell id="1" parent="0"/>
                <mxCell id="662" value="" style="rounded=0;whiteSpace=wrap;html=1;strokeColor=none;fillColor=none;" vertex="1" parent="1">
                    <mxGeometry x="-192" y="-426" width="1326" height="1098" as="geometry"/>
                </mxCell>
                <mxCell id="661" style="edgeStyle=orthogonalEdgeStyle;rounded=1;jumpStyle=none;html=1;strokeColor=#000000;fontColor=#FFFFFF;" parent="1" source="586" target="600" edge="1">
                    <mxGeometry relative="1" as="geometry">
                        <Array as="points">
                            <mxPoint x="949" y="470"/>
                            <mxPoint x="652" y="470"/>
                        </Array>
                    </mxGeometry>
                </mxCell>
                <mxCell id="615" style="edgeStyle=none;html=1;entryX=0.5;entryY=1;entryDx=0;entryDy=0;entryPerimeter=0;strokeColor=#000000;" parent="1" source="400" target="606" edge="1">
                    <mxGeometry relative="1" as="geometry"/>
                </mxCell>
                <mxCell id="619" style="edgeStyle=none;html=1;entryX=0;entryY=0.5;entryDx=0;entryDy=0;strokeColor=#000000;" parent="1" source="400" target="600" edge="1">
                    <mxGeometry relative="1" as="geometry"/>
                </mxCell>
                <mxCell id="400" value="GitHub Actions" style="shape=image;verticalLabelPosition=bottom;labelBackgroundColor=none;verticalAlign=top;aspect=fixed;imageAspect=0;image=data:image/png,iVBORw0KGgoAAAANSUhEUgAAARgAAAEYCAYAAACHjumMAAAydklEQVR4nOydDYgdV3bnT82IpRIEWwKz8wxGLtUYRmaGdos4WGJadDWuME9kBrUYZ2WPO0hiJm2JJFgGx6omztZ9xLNd9jpIZj1Y7jhYYtuxRBzUghn0ZrdCV6c1SCYe1O51kMKa55IwzAsYpnZXJJVFUMvtvs9qtfrj3Vv31sd75wdNHM2rW7f7X+/Uueeee84W6AFMPzUAYDf7+QYA1Og/s5+1SADgKvvvGwDwzwDQjFztao7TRpCeRyt6AjwYjrcTAB7TLXtQt2z634+wH13ibT4HgE8BIEpa4adJK/wEAD6Og0Yk8R4I0heU3sBQo2I45AQA2Bt4JHmwAACnIlc7W+AcEKRSlM7A6NbwVt2yn9Qt26Y/APAtACjTUi6my6qkFQZJK/xZ0go/Slpzd4qeFIKUkVIZGNNPDwPAJIuhVAXq2bwQuVpY9EQQpGwUamB0a3iLbtlDhkMOAcDTkmMpeXM1Dsg5AJiLg8ZC0ZNBkDJQmIFhOz/vA0C9qDko5EzkakeKngSCFM1Xirip4Xi7AeCzHjUulMOmn84ajldkUBpBCic3D4Yth75vOKTeA8uhbvkCAN5pT9k/SVpznxc9GQTJm9wMjOmn7zPD0o+0AWBf5GoYm0H6CuVLpNr47PdNP/2sj40LsF2xa2zZ9O2iJ4MgeaHUgzH99CQAHFd5jw1YeRxgNTsL3Aqn83omcrWZgu6PILmhxMAYjmcaDnlLcRA3BoBP6E8ckPaKM0VRt2n9huMZzNDQn68bDnmEGZ9B1VnDSSt8M2mFfxIHjUTlfRCkSKQbGJYs967scVewAACNPDwA00+fZx6YKmMTxQHZEweNtqLxEaRQpBoYw/G+YzikKXPMFVDDMhG5mqrx18X000MAQBQZmtORqx1TMC6CFI4UA7NiC/qUxNgGXTo0k1b406QV/m0cNGJJ4wpjON6w4ZBRVhbicYlnpGbigDQwAxjpNaQYGLaUOCVjLAZdOhwo8xfO9NM6y0Q2ZI0ZB2RXmX9nBOHlq1kupp7LQyeiPwaAVwDg32WcC/VYgjggL7anRo4lrblSxyXioPEpALxBjeGWbeZ2GZ4bOz3+i7L/7gjSLZk8GMPxDhrO0gG/rNC39kjkaoUvg0Qx/XQSAFwZY6Eng/QKwh4MC+ieBoCtGe7/OQD85/aU/cdf/M2RyhoXWPZo/g4A5nTLTthWt7BHxzyZv01ac7flzhJB8kXIg5G0FR2zLdobGccpHZJ20+jf51HcwkaqDPdRAXZCOKtxoV+aHb1oXGDZm/k5ABxgcSVRDMMhByVOC0FyR8DALGXoZmGmPWXbVY63dEPkajNJK6yzDGNRXjYcz5Y4LQTJFa4lUsazRX17Bsf002vs+IEoI1iSE6kiXXswtfHZ72cxLkkrHOtH40JpT9nfo55bhiEuGY73mMQpIUgudO3BsJILIqny1HPZg7VQMgfHZyJXOyB5SgiilE09GN0a3mL66QVR48I8l743LrAclzmTtELRXJnvmn76nOQpIYhSujAwNl0ajQqO/0x7auRvBa/tSdpTI68CwBmBS7cAwGnW3RJBKsGmSyTTT6lLf1hgbOkuPTv/89yKei0xywKeiwNypkrtXTMsOd3I1V5VMCUEkc6GHgyr/i9S6rLdnrKlpM0bjvckXaKZfvorALjEvKnOF9NgLWU9wyH/y/TT2dr47CEZ91VN0gp/JJgnc5QVykKQ0rOuB8P6Fn0mcFqYehU7ZOS5mH5KqPEQuHSBncYutUeTIeiLfZeQSrCmB6Nbw1sESxF8HgdkjwzjUhufPSloXCiDhkPmTT89UeaYReRqZwBgWuDSw1g8HKkC6xgYe0iwnu6bMtL/TT89qVt21mLhDwGAbzjkepl3X+KA/JnIdYZDfiR/NggilzUNDOsVzctCe8p+O+uEDMf7joJOBG+afnrJcLxhyeNmhi3jRgXiMXWMxSBlZ80YjOmn/8rZeZF+OR6UFHe5kGFbvBsacUD8slXzF4zHYCwGKTX3eTDsQedt6xpKPLyo+nCfZzhkUvE9uGHxGN6g9CgLxiNIKbnHwOjW8FYA4P7yxcFS4anMmH76tMwatxtw3PTT66afero1/FAO9+uKpBW+w3kJ/VtlPd2OIMpYZWDsJwVqy0Zx0LgoaT55BmN3AgCpjYfzpp8qbbLWLUkr/InAZU+zGj0IUjpWGxje5UkSB0Rmtu5uiWN1C/1yflYbn32r6C8qa81yVODSJxVMB0Eyc0+QV6BuidTjAKafprLGysDTkaudL3ICAscIzkWu9ozCKSGIEF96MCwh7Vs8Fyet8KdKZtUdYdIKxzJWjFuLadNP3zcc75BuDfMGu6WQtMIPOC8ZUjQVBMnECgNDTvB2KkxaYaEnpdtTI+9FrvYoAIywIwoy2LIc1yBnauPhBUljcpG0wp9xXvKQ6acqt/YRRIiVMRje+MtCGdq5wvIWbyh44nsz6nTZaDierHa43SJSP6d0SYQIsmRg2PKIN8A5oWZKYkSudjEOyINJKzyVsZr/agYNh/yD6acndGv4AYnjrgsz3Lw1Yw4XtaRDkPXoeDC89V4XIlfL2vdHOnHQaLenRl4AgEclx2aWzjXlvKXd4Py8oVt2aQ92Iv3JkoHRLZu34j3vw58rkatF7Sl7LwAQALgqcWj6Bb7OzjUpPc1MfwcA+ITzsm8qmg6CCNExMDxvvrgK3QGS1twXkas1IlfbQ70PiUPrywcNyWXTT4nheCqXJR9xfv4RRfNAECE6SySeB5P3rVo4katNxAEZAQDZ2+qe4ZBZw/EOsho6UokDwhXsNRzClWaAIKrpCwMDy/GZMHK17wHAEclB4N2GQ87VxsP/JnHMDh9zfr4056oQhPIVdhq3azc/Dkilm7GzU8sqtrSfZrWDZR7W5P1b572djiAb8hWB8z+Vb1gfudr5OCA74oAcFyiRsBGjAHC9Nj4rJQCctELeuaGBQUqFiIH5Z0VzyZU4aERx0HgjDsgeAJDZ97mmW/abMgZKWnMJ59x000+z9MBGEKlQA/MNzmtKXamflzhotCNXG5F8rmnQ9NO3JAV+eeeEXgxSGr7C+0CWvRWIKCvONZ2SNORR3bIflzDOP3F+voiSFwiyJl/hPCJQqjq2KmhP2X8SB6QOAKcB4HaWsXTL/l0JU8K+3khl4TUwMrNiS0nSmrsTB42fR652LA7I72Q5pc3av+TNwwXcE0HWZNPm9/1MHDSoQd2VIe4k49wSrweD5TOR0oAGZhPYuabfZueaPue8PHPAVWK3BgTJHTQwXdA518SWTDxg+QSkr5F+fqYX0a3hrbplf99wyIucl95RNCUEqQRoYDaBpf5fEGwIx7ukWuv+GFNBKssWtvXcrSvfNwWNDMczdMv+QwB4MUMzOBmJe7wGpud3+pDqsIU9kN2+nfsiS9T00+MA4GXtMhkHRMYRBN45/JuEeyKIFLiDvPTNrmYq5cD0U2pYTkpqYSsjSQ7PFiGV5St41mWZ2vjsftNPr7DtaBk0k1Y4J2Ec3sQ5mQc3ESQTWwROR9d6oWRDB+qRGQ4RDeKuRztytX2SxuL1YPBoAVIaqIFpsnhDt3y9F96SrA/1d9jWs8xatknSCkX6S9+Hbg1v5TQwtzExDykTWyJXu2r63beENhzySByUuqnApph+ehAAzikYmnoPR9pTI1K8CN2yeQ3fFzLuiyCy6AR5efI1KrtVbTjeE6af0uXQtOSh20krfDEOyJ7I1WQuUXhr9fTM0hXpDTqJdp9yFIyu5K6G6aeEcynYLU2J8ZZ7MBzC+7fuyVo9SHXpGBieB7NymaWmn54EgOMKhg7jgDyjYNwOXH/rqhdkR3qPpSVS0go/5bnI9NPnlc1IEro1/JDpp57pp9cVGJerSSscjVxthPWRVgVvdTrcQUJKxZIHk7TCT3SLa5eWfmHfUDarjLDC1xcUeFvUQ9gnOc6yJux34J0/bx8lBFFKJ8j7S87rTNNPDymYTyYMx9tp+um7AHBNsnH5AgBIe8r+7TyMC2OS8/NRr9ZLRqrLkgcTB43PDWepTSlPUJEAwFl1U+PD9NPnWB1d2URxQEby/PKyHJ0652Wl9SiR/mXlWSTeavqm4XjDkufDhW4NG4bjPWf66SUAkNKLaAVR0gr/KA7Io3l7BgLFwpM4ICryehAkE9rK/8f0019zHvI7FbnaC7ImY/pp9xl/ywHNREGbDjrmMdZithCYweTxYK5GrrZH4ZQQRIjVBaducH5hi+zBoyof53DkaucVjd0tuHuE9AT3lGtIWmHAef3jpp/yxgo2orBzNEkrPB0HZEfRxoUFqblKRUiqO4Mg0lltYH7GeT31gN43HE9WcesivigRAOxoT40cK3oXxnA86pUdFrj05wqmgyCZWW1gPhJwtw3dsp+VNJ+3JY3TDVdXbD2XYntXt2yRrX9fcbIfggijrf4H009tAJjlHGchcrVdMiZk+ulnORxH8CNXm1B8Dy5YcfFfcbY6iSJX26FwWgiSiftKZkauFgoUjh40/ZQ3MWxNklaocrt1hp14LpVxMRyvxjKPeYzLHQA4onBaCJKZr67z71t1y+YN3g4BwFzSmsu03NiyzfxH3bJ5+w9tBl1CPBO5WiNpzWVuJSKb2ng4L7Bz9Pf091E0JQSRwnpFv4VqyRoOOZhtOktZxW0Fb+bDkavNSB5TCobj2YJb7rhzhJSeNQ1MHDQWAEAk0WzMcLzvZJ1U5GpnklboZxzmRhyQw3FAHoxc7WLWOanAcDzdcIhIjZokDsh7CqaEIFK5L8i7EtNPZwWLYR+Q4TGYfjoKAO8L9HieiQPyTBw0kqxzUAnLeRHZlm5Eriar+wGCKGO9GEyHOd2yxwDgNznHHdUt+/LtX569mWFu1JO6QY2Fbtn/jxmZBzZY1n0BAP89Dsjx9tTIj5PWXKn7QtfGZ3+4ZZv5nwQu/ShyNVlpAQiilA09GFh+y04CgCsw9o3I1R4Vm9baGI5nGg6hb/zHWLYr9VA+BICFOCDNsnssHVi/6esCnhksL/sapTnFjiAbsamB0a3hh2rj4T8INlxbaE/Z3yvjzk1R1MZnv61b9geCf8+wPWXvS1pzlTCkCLKpgYG71dWuCd5jJnK1A4LX9hwZEgnbkas9qGBKCKKMrnpTsypuotuio6afigQyew4W1BXNUi7lNjuCbMRmQd6VfKpb9g/WKPHQDaO6ZSe3f3n2FwLXVh66LHrg9878fYb2tFF7yj5y59c3/4/kqSGIUrpaInVg28YXMtzvTORqfZXezgK6VwRjLsCykHdgS1ikinS1ROoQudpM0gqzlKY8bPrpZ7Xx2SczjFEZauOzP2S7RaLG5dM4ILvQuCBVhcvAwPJhxD/J2EHQ1C37p70clzEcTzf99F3dst8R2YruEAfkxaJr1CBIFnhiMEuwBLbzumVvBYDHBe+7BQBGDYc8AgDXktZcz7yhDcezDYf8Jf39MgxzGwBeak+NYL4LUmm4YjCrYY3ks3yROoyW9bxQtxiOVzMccklSreDS1atBEBG4l0griQMiq1zAuSovmUw/NQyHvC/JuMRxQLDHEdITcC+RVpK05toAcFG3bJudExKls2Q6rFu2vmWb+Y9VyFY1HG/QcMiJLdvMcwDwiIQhL8cBGWYlKxCk8mRaInVgXzTRTN/1OBq5Wp41ernIcBJ6PWLW5A2NC9IzSDEwcNfI0GXCTlljsu6KH7BuBwtFFrc2HM/ULft3dcv+Lqs+x9VaZANuA8CbdFmExgXpNaQZGLgb6Lwu8cu3mjOsFkpuW7fsHNakQK/objkeuRrGXJCeRKqBgbtG5iAAvJwxLrMRnwDAR3Gw1LD/YwBoJ60wyhK30a3hrbplPwIA3zAcMsjODO1W2OHgU5bnUundMwTZCOkGpgPLB+Ftf5KVkLW//acV/Z0WVmbCstR9k3lZ1JA8zP6vqla0axHHAdmFSXRIr6PMwMDdHkuXsmSz9iDUqJQi/Z/pY68o4LV7Ha2osW6z4l4Ra7Z/o4Ap9x1V10ipgYFlT+YxwyEEAL4reBK7V6Diz7Sn7B/nXYCL9V36tuGQx5mntlPC0i9mS9VP4oBcpQ82K3GKCNCrGik3MB1MP30OAE7ndb+SEUauNpL3Tdly8KSkbOtuoA80waB19/S6RrkZGFi20jsNh+wHgKM5tIctAx/FAXkzaYXn80ocNBxvULfsZ3XLfqrAvzF9iD+IA/JB0grnqpA0mSf9pFGuBqaD4XiG4ZCTkhPVygQV69W8W4soSP6TAXXN95Uh5lQG+k2jQgxMB8Px6JrzRyzHRLRmSlm4AwCX6XIoDsh7cdD4NI+bUmOtW/bzumUfV5h/lBVqcK8mrfD19tTIz4qeTN70s0aFGpgOKzya0RILsBERAByJXC3Xdq6mn9IH1qvY36wSTfFk0e8alcLAdDD9lIrwFgA8XfRcOCiktILpp88DwKm87yuJviidihqVzMB0MBzPBIAnDYc4ADAEAA8VPSdGwvINFuKAUG/l53mfj9Kt4a/XxsNXAOCpim/7X40DcjwOGh8WPRHZoEZ3KaWBWQ0rNj7MgmNFuJp0CfRGHJBzRR5IZB7etR7agaMGew9ri9MToEb3UgkD00G3hnXdsncCwDeZdyMzGn+b9be+QQ1KHJA281Y+LkNKf218dr9u2ad7IBi+GvoAN9tT9jFWX6iyoEb3UykDsxKWQs171ulqJ1oOAP/G/i1cfV6pbLAT3VdyOHIRrVHQvSa5BMd6VLoDKGq0Nn1lYOKA1OOg8XN1s5KLbg1vrY2Hf84SE2U9uJ04UsTSx5dOo2+WQs5S2elD/DXdsgfpD4uPbZU0L2BHKSrlyaBGG9NvBsaNg8ar6mYlF9NPTwCAL2k4+tCeiwPSkLXkY+kFxwHgeYmxsUp5MqjRxvSVgQGA05GrHVM0JamwYGGWpm0rocu/ZyJXa0oY6z7YEZC3MrTGXUllAr+o0eYaZeoqUEGcoifQDbo1nLXdbIerSSs8HAfkQVUPLix5ho0bkauNxAHZkbRCnz2AotBlxhXD8Z6QOEXpoEbdadRvHgxlJO+MW14knFdps7MlhXgB7M1+idUuEeVq5Gp7JE5LKqjREptq1G8eDOWkbg2XtgCW6aeHAGBM8PI7AHCmPWUXusSIXC1uT9nfAwDCtv9F2E2/xIbjlU4r1OhLNtWoHw3MoG7Z3yl6EmtB18mssLlo9ufLkasdSVpzheftJK25LyJXa8QBEf0iUg6zThWlATW6jw016kcDA4ZDynZcfgnDIX8qeOkXAHC8PWX/heQpZSYOGhfjgFA3ekZwiNHa+Ox+ydMSBjVak3U16scYTIddZdqpYJXNPhO5Ng7I4TholL5RfoZe5oVUBFwNarQha2rUlx4M42TRE1jFu4LXUSN5XvJclBAHRDQHaTcLShYNarQ+a2rUzwbGptZat4ZlZjkKYfqpJ5CfcAcAfOraVqW2Shw0rsYBGRUIKurUWy0yOI8abcqaGvWzgYHltWP4wyInwEpTiJTW/GnkahNVeXA7sEZzrwtcOqhb9rCCKW0KatQ192nU7waG4hqOlyUXIBO6ZYsEMOM4IC8rmE4utKfsn7ADp1wYDnlKzYw2BjXqntUaoYEBqBkOuWI4Xp6dHb9Et2yRgNqROGj8o4Lp5ELSmvsCAPYJZJMWZWBQo+65R6N+3kVazQ1WhzS3nSV2PuQa5yncZuRq+xROq2tW1Od5mP3T/05a4UdJa66r9XttfHZSt2yX87bH8+y7hBpl06jK5fxk03mQduVlZAyHnOA94h8HpBTN69iOwewaPb0jADjQTQpA0grfFnh4CQDkaGBQoywa4RJpFYZDRLciRRBxvecUzIMLVnfk2hoPLrBSkbPdLDlZSQLec2EGy6bNC9Qog0ZoYO5n0PTTX5l+6unW8AOqbsJOovLmdhzPu8j4auiDazjkbzapOWsYDnmrm3NEcUCOsVIFPORy0ho1WiaLRmhg1oZaf1IbD+cVJnjxBpXbRfd8Nv100HDIdVYlbTN2Gw7ZtP0Mq9LG9XsZDslr1w81yqgRGpiNoW7er2rjs2/J3mUyHMI7XiDz/rzUxme/z+qf8Bhcr5sPxQE5xZnY9S2OzwqDGt1FVCM0MJuj65Z91HDINdNPL0j0aLjiCHFALku6Lzf0rahb9rRAzdmuWnewJQXP75eLgUGN7iKqERoYPkYB4Nemn16vjc/+V8PxDmYIOPJ+SQppULbirSiSpt918e6kFfLs3Bmmn+YR6EWNViCiEW5Ti7FTt2z680ew7EoDO+r+MTvY1k1AjCuAnGd+TgfWikPkrdjhXLcfpA+vbnEd9amzHlYqQY1WIKJRPxmYBgDsFwjcdcuo4JZmN+T+4LJtztmMrTh4AoP/zDn2SdNPy3QiHjW6H6OfDAy0p+yna+PhOYVGRhVd5yEYjrdbt+z9rCeOzrypG3FAprtNXV+xzSkcb0pa4en21AhP1TbV3ohqUKP7eaKfjgo0IlcjkK2oTlEciFxt02pjpp8+DwCn1vmfu2o1wVzu2Yw9dBZEShSYfppmuGfRoEZr3KMvg7ztKfv3WTpz4XVRu2TTmI7pp3UAeGWDjyy1mmABwTUR3OZczQcZ6p9U2YtBje5nsC8NTNKaux25GvVodmSoQ5obm7VZYdmYl7poEarrlj3N3oD3kGGbcyX0rfj7GeqfVKZl7GpQo7XpSwOzkvaU/UwcLBUB/6TouWTg2xyfXXpLmn56slPNL+M2J7AErONVqtxWAH2pUV8Fedciac0lSWvuLACcNxwySUUoek4CPMT5efqQHq+NL710z2bc5gTWiqPQFPkK0Jca9b0H04Fa9cjVXsjYrU8JCs9DHZWwzUld7rclzqmSoEZrgwZmFZGrnY0Dso0VPn5H4BSpCjbbVv9UcFy9wGDhWnSVtl5SUKM1QAOzBnHQiOOgcTFytT+IXG0b82qKNDSbifrLAuaXNVi4FlU2MKjR/YRoYLqAejXU0MQBGYwDQl1WHwB+yra57+QwhQ3rn9AHKA7Ivhx3YWS/FSHnIlIqQI3uJ+77IC8PcdD4GAA+joPGl/9mOJ7Oal8MMlf2sS5dWp5DHfUu5naVrtcNh6jedlfxVgRWg4eHKIc8JtToXng1+hgNTEaW30yNkLesoOmn/7eLnIgvP244Xi0OGhu+/Vg/m1HDWaoJy/swbMZtAHg5DsjbirY5H+P8/JHNck+yghrdB69GIRqY4vics94IdcEvbvYh9gCDgrek0m1O3ip1qo0LAzVagYhGGIMpDt61eNfBNfYAn+Gf0rrksc3JEzzM64gHanQv3BqhgSkIzuI99O3BVYgjcrUjbKs9a1BRerBwNaw1K88J91zOLKFGdxHVCA1MQfA+vN0EEVdD35Js10sUVcHCezAc4nEmkuVSewU1uouoRmhgioO3vKJu+ulbvDdhD7DIW1L5WxHunjDetLL9SuKAfKRuRveAGmXUCA1MQbBWELyxhKPMVeW9F+9b8kzkar+n/q24dML4fYE0+F8omtI9oEbZNUIDUyy8LTlBt+wfityoy7dkm34mcrUjIvfgRbfsgwJp8DObbQVLBjXKoBEamAKJXO08r1vcKTQuAnuAR9Z5K8dxQA50tlDzQLdskdjDCwqmsi6oUTaN0MAUz1XOzxumnxLRm1G3nxXaOgAAp1nBrWPLRyEavHMRhhVU4u3QGEWuVkQVQtSoe+7RCBPtCiZphTO6ZfPWB/Zq47Pz7amRvxO9L6sfW0g1P90aNll1Ny6SVviBmhltel/UqEtWa4QeTMEkrfC8yHW6Zb8ufzb5UBsPPZE0+aQVvqdmRpveFzXqktUaoYEpGLYLcJhVlOdh0PTTC6w3TiXQreEtpp+eAIAxgcvPFNHYDFAjHu7TCA1MCYhc7SwAvCpw6ajhkOtVeYBr4+EfslIXvEvzOK9dk/VAjTZlTY3QwJSEOCC+YOFxw3DI35T5AV4uaeEdEtnyhWW3e70+QrmCGq3PehphkLckMDf8dcMhIgfghuhbEgAezTlHZFNYvZwrGbppxkkrLEVBcdRoXdbVCD2YcnExQ1lF+pbkTlNXDTvDkqVVbyMOGmWoi9wBNbqfdTVCA1MilmsBL5VVFH2AR00/vVYbn31S8tS4MRzvm6xF74uCQ9wBgOORq5ViedQBNbqHTTVCA1MyWCJVli/VoG7ZQZZEr6yYfjpqOOQy6/8tugz/oKy9llCjL9lUIzQwJaQ9Zf+FhAQrz/TTX9fGZ/9c5PAdL4bjGYbj7Tf99BIAXMjYaiNqT9kvS5yedFCj7jTSMtygUEw/tVlDqm5pRK5W2BtDBOpKZ1wbr+R05GrHJI11D6afPp/xjb6SNgA8GrlameIu64IabQwamBKjW8PfqI2HocTi0AkANOOAhOww3YciOxqG49Ev1BOGQ4YAwJE5v6QVPt2eGsntMF9WUKONQQNTclhL0lmJb8nV0Ie4yYor0f9eWPlmMv10N3s4h1kbD1XzoF+sPZGrFZKtmwXUaH3QwFQA9gBfV9DmokycYr3BKwlqtDYY5K0A9G3VnrLtvGrR5gx1/0l7yv6zoieSBdRobdDAVISkNfdPkavtKur4viJusGBhI2nN3S56MllBje4HDUzFaE/Zv0/fJgU348/KHQA4056y91Vlt4gH1OguaGAqBn2L0LdJxmzSovlR5GpHktZcEdXplIMa3QUPO1YUlk26AwD2Gw55EQC+VfScumA6DsiPWbX+ngc1QgNTadgBs7MAcN5wiAsAJwTaS+RByJrV96THshH9rhFuU/cQpp8ektzvWAaELheKnkRZ6DeNMAbTQ0SudjYOyG8krfAw28koou5IAgBXk1b4YhyQHWhc7qXfNEIPpscx/fQgK4Go+jBdvNxwi7zaLzEWWfSyRhiD6XFY47DzhuPtBIAndMsepD8s4/QhANgqMOwXrHTkjTggC8sN2Bu8fZwRRi9rhB5Mn8Oaa+1kP/9+jXMsEQDcZP83ilwtLGiqfUuVNUIPps9hB9d6Mb29Z6iyRhjkRRBEGWhgEARRBhoYBEGUgQYGQRBloIFBEEQZaGAQBFEGGhgEQZSBBgZBEGWggUEQRBloYBAEUQYeFehzqnzOpV+YaPJpNFkvj0ZoYPoEWSd1TT+FspzU7TWGxpY12j5gDz48IK7RRPNejeanlzW6PI2nqbsGT1N3Ry/XGukVJpr5ajQ/TV69PJ2PRv1kYJQ1Fi8ThuPpumUf1C17FAB2F9BpsFMtbSZphRfjoNF3dXg3Y2jM07cP2AcfHihWo5uL4cytxfDi5Wl1GlXZwBgA8GuOS8LI1UYUTqlw+q3eaxWZaJZTo8m6Go0qa2Bg+QuVcnw8jlxtm8LpFAb1WvqxYn2VoF7L3rHyazRZl6vRV2UOljeGQ45yBMCoqD9JWnP/onhauWE4nkGXQ4ZD6BvxP5Y4aG8CwHHDIY8AwPWkNfdF0RPKi6Exz6DLob1j1dBo79iyRrcW5WhUdQ/m2hpbdusSB2QPa4ZVeQzH22045BL9z6LnIsDhyNXOFj0J1QyNebv3jlVXo8l6do2qnmjH6849pmgeuaFbw1tNP/UqbFwo75h++q5uDaveNSmE7QPDWyeaqVdh40J5Z6KZvrt9IJtGVfdgJgHA5bik8jtJpp9eAIDRouchiRsAsKfXGuBPNHtPo8m6mEaV9mDigPDu5e9WNBXl6NbwN9iSsFceXGCZqddNPz1BPbOiJ5OV7QPD35ho9qZGE830BPXMeC+utAdjON6g4ZBrnJftqNpuBtuSv15AvkSenIpc7YWiJyHKRLM/NJqs82lUaQ9GIAYDVXu7MOMyq/DBpX/D0wBwBABGAGBb5Gpa54f92wH6cClunXGUnYuqHMy45KrRZF3TOj95asTORXVNpT0YWP4CXgKAOsclcXvK3pG05kq/7qfLotp4GEp8cBMAaMYBCdlD+2EcNLh7I1PPEQCeMBwyBACOzPklrfDp9tTIRUnjKYcui559Tb5G89N3Nbo8za/R0NiyRnvH5Gt0czF8+q9f6k6jXjAw1CO5wHNNHJDDcdAo/TYp7zb8JigLcJt++jx7e8qAfpkerUrgl8VcpGk0WVej0URTvkbdBH6rvkSCyNVmAIArt8VwSKmXSWwr+oKEBzdOWuErcUB2qNw9i1ztjTgg2+Jg6e/azDgcfdNe063hr0uanhLYVrQUjW4uhq/MT5MdqowLZbKuvTE/TbbNT8vTaPvA5hpV3oOBuzVNeIO9u1hLztJh+qkHAFlPfhd2epx5le9mzAE5F7naMxKnJZWJphyNJuvFaDTRlKPRZH1jjSrvwcDd3r2fcF52wXC80iV6GY63GwCOZxhiIWmFTpGlKahXGQdLa3/qXd4RHOYptvQqHUNj2TW6uRg6RRkXWPZoZuans2vEll7r0hMeDIi/9aM4II/GQSNRNC0uDMczDId8luGtMhO52gHJ08qEQDLkal6IXE1W7CAzQ2OesXcsm0aT9XJpNNHMrtFkfW2NesKDgeXArchyh3owwwqmI8r+DA9uHAekdFnKcUAaGbdOPWp4JU4pK5k0mp8un0bz09k1ooZ3rf+h0qepV3Fz628d/i7vdpxu2Y8AwHtJa07UTZQCK7lwBgD+g8Dll+OADItsOauG/V3PJq3wU92yqUv+m5xD6HSY2788O6doil3DSi4IazQ/TYZFtpxVc2txWaNbi+GnDw+Ia/Q//8f9GvXMEgmW3XHqkXwmcGnhSwvTT+nyzhO4NGbLvNI9uKvJsJ1dilo+E01xjeanyaNlNC6rybCdHU/W79eoZ5ZIsBxcjFjQipfR2vhsYQFFVonuhMClM1UxLpT2lP0Tttbn9RYN00/fVTStrmCV6IQ0qopxobz3krhGE837NeopDwaWlxq24RCeWr0dEnayN9eta7Y0+leBSxciV9ulYErKYcbiMO91cUB2xUEj99QCtjQS0miyXk2NmLHg1mh+muy6PH1Xo57yYGBpzR9eZuc2eKHryCu18dnvK5jW+je17IMi1yWt8EX5s8mH9pTdYNmgXOiW/ayaGW3M9gExjW4uVlej914S02j7wL0a9aCBmbvDslZF2jLoumVP53nojlX/56XRnhr5OwXTyYWkNUeXsvt4r9Mt+yk1M9oYVv2fl8Zfv1RdjW4timn08MC9GvWcgVnBOcHrqCczm6OR4a1RE/dCfye2FOUtX2qyQH7ecGtUZBKdLCbrYhpNNO9q1LMGhgUURdfrBgBcq43P/qnkad0Da4rGta2etMI31c0oX5JWKLKUPalgKuvCmqJxaXRzsXc0urmYTaOeNTCscv1IlgQi3bJfMf10VmGil897QdIK/0rNVPInaYXnWbdBHkYNx8uzqBO3RrcWe0ejW4tiGg2NLWvUswYGlt3wOA7IvoxZiku7UobjHdStYWn9bFivaF53/3QvdUpkRzSeYTt4PHxb0ZTugfWK5tZIZafEvLk8nU2jnjYwsPwQtyWk0A8aDjlXGw+56s5swhOcn0+qXrB8LSJXa/LGywyHPK5uRvfArZHKkgtFMVnn12jv2LJGPW9gYNnIXGW1SrImO9VNP/216acXDMfbn2Ug3bJ5g8hZa3iUFnZeiecNmUsAfvsAatSBnVfi1qgvDAwsG5mLcUBkRPaN5TgAmTH99DNW+4QbXgPDylz2JGzZx7OM3alwOl/yMKeBYWUuexK27OPWqG8MDOOs5KLIdH1+gXo0pp/ybmXyBip7Zl2/Djy/X15b1ajRvXBr1FcGJg4aSRyQPYLboxtBvZgrpp9eN/30Um18dtJwvEOG4z2+QVGrhzjv8aGEeZaWOCBc+Ramn9rqZvMlqNEK5qf5NJpopnZZG3ErY3nnonHM9FNd5KzFJlC3cKdu2XXduvv8G87Syixa9QbgaWIViR5onGimdQB4ji3tYgB4mwXtMjM05g3uHSPPr/Ao5uanyWnBg30fc36e/oGFlyTsfNFuptlqT+Vr7N+5NKrKgcYMcGvUdwamQ+RqRwzHe8NwyF8CQB67EmYG157LIGwfGN6yfcD+4d4xcniNLNTRiWZ6dX6anLm1GP4VqwXCxfaB4a8/+1r4CvPcVm7d29Tg7B0jp997yf7xrcW52xzD8n45hfqMM6NIDe5TAPCAyBjr0LMB3hVwa9RXS6TVxEFjIQ7I7yhuViUDLtd7+4D9LP2Sb5Divpv+76sPpnXLs6+FrwPA06uMSwfqKbnPvhZyZUHHQYP37Bh38iMzLtcA4Khk4wK9vjyC5UAvt0Z9bWBg+cGOI1fblbTC4wIZi3nBFTzcO0a6Kkjd7edWwlLnv9vFR492sjk54Pk9uWMwe8fIf+G9hoNeD/B24NKo7w1Mh/bUyBsAsEPgcFcedO1hsdae3W6vDvK2AmWp890srY29Y+Qo59jKvqTsAJ6javwKeMGy4NIIDcwK2NGCA1mChyrg7HLI+2bn/TxPHKlMBdWVJud10+WwH0EDs4o4aLQjVxuJA7ILAN4ROINRNLyxia4/PzTmSTuLVQCVbKxfddDArEMcNBYiV/sDAHiwYjsEvN5X159nB9943tRlikv0yxKmVKCB2QS6PIlcbR/1aJJW6LMHNVevhiepjCVDfd7lxz/nTZ7iKF+QzE+TNzjHVlaGgaXxK1vGTDRzSfwrA1waoYHpEurRtKdGJlih7QdF6oRkoOtlDPMy3uny4++wz3fNZF17tctypDMriz93Cc8ZI66xL0834gxVDruhTM3hVMKlERoYAZhXMxEH5DfigAzFwdJ27xn20KvI5uQKlr73kv0XrLfNem9s+u+n2Oe4ubkY/mgDI3OHGpf3XrJf5hlToIgU99+ZFbIWaWvTDWUKaCtBIO2g3beZvDJgBZN+QX/ioPHlv9Mvi+EspaE/wZLdjIxBRi73+9bi3O3JuvYCALww0UzfYollHU5nrVny1y+N0N/50YlmeoL10Om8vSP6/0/WtfMCw/KekOZObLu1ONeerGsH2Nb8+5JPZffDEolbIzQwClguctWY2ehtafppyjGksHFixkRJESS2XHpV0nBf4/y8cDxlsq4tDI15u9hZJH2tmNpkXQsnmvloVCG4NUIDUxxf8KSrG443WETTsbzIuwDX5elGcnm6sdkOGpdGQ2PeoEDcqTKIFODCGExxfML5ed7yjZWC08DEkauJ9L3iBTVaAWcBrniyrt1AA1McXF8QwyFD6qZSLKxrA8/vx/vFF4VLo71jvavR0JiYRmhgCiIOCK8rrfIcTaEYztIuHE/tlVwMzPw0atSBHYzl1ggNTHHwPrw100+fVzSXwmDtW7h+L97qdxng1mii2XsasfYtXL9XJ4ETDUxBxEHjQ4GdkFMKm8AVguGQtwSS1HKpvXJ5WkwjtpzoGfaOiWuEBqZYRJK+eiahi9Ur5s0fiQWKU2WhrzUaGhPTqFOcCg1MgcQBeZX3XJPhcNdYKS26ZT8ncFmuTeXnp/k1EqiDU1q2D2TTSJM7HYQX00+vbFDacj0ORK6mKuU9F0w/pS73r9Ypu7keceRq2xROa00mmmIaTdarrdFEU0yjyfpdjdCDKZikFYocwHvXcLxvKphOLujW8AMAcInzwaV8oGhKG3JzUUyjobHqarR9QI5GaGAKJmmFFwUuMwyHvKJgOrlQGw//UMAjoEvKQgzMrUUxjfaOVVejZ18T02h+mqCBKROsbapIXOG7pp9OGk61qsyxnt4vCly6kLTCOQVT2hTWNlVIo4lmOlm1SoBDY+Ia3Vq8VyOMwZQE009nBU/kLsQB2cNOdpcaw/F2Gw65InAp/d0e5KxNLJ2JprhG89NkD2/tnSIYGvN27x0T12h1bWL0YMrDEcHrBgHgoOS5KMFwyAnBS68WbVwYPa/R3jFxjdYqfI4GpiRErkbd8GmRaw2HvG766fO6NVzK0/HUczH99ALrBMlN0gpPyZ8VP5N1cY32jpHXJ5rp89sHyqkR9VwmmuIa3VxcW6OvZp4ZIpPrumX/kcB1vwkA9a2/dfhf4qDxCwXzEsZwvP2GQ4IMxZ1mPn91R0PytLJw/eEBcY0Gfufwv1yeLpdGQ2Pe/r1j2TR669DaGqEHUyJYhuphVnZShFdMP31Xt4ZFe2BLQ7eGHzD91DMcIvTGZ5yJA/KMxGllhmWoZtJoopm+u32geI22Dww/MNFMvb1j2TSan15fIwzylhBqJNhDLEobAPZFrlZI8SOWRHdJZJtzBVcjV9sjcVpSoUZChkaT9WI0Ykl0mTWarG+sEXowJaQ9tVScOst5mxoAXDP99EptfPZQXlvZhuOZtfHZSZb9meXBTVgh9dLCCohn1miimV75wWuzh/Layh4a88wfvCZHo/npzTVCD6akMC/guqReQTEAPBO5mpIGcobj7WSnomUUvk4AYE9R3hcPzAuQqtFkXY1GQ2PeTnYqWppG3Xhf6MGUFLYtK2v3hH4RLtClFzvBLGdQxzNMPyUst0VWVf1mFYwL3O1HLVUjuvRiJ5ilMDTmGRPNlLDcFmkadbu0Qw+mxOjW8NbaePjnrO2ILBc6YYWUIla46WO6KtusBALrW7QTAL6mW/Ygq6E7xFnlbDNm2lP2saQ1p6K3lBK2DwxvffY1dRqxwk1LGnVKIKwH61u0pNH2AXuQ1dCVrtF7L9nHbi12pxEamApg+kt9fK5IfIDXI1qjn3RNcv+g9ZiJXO1ADvdRAuu11PMaTdb5NEIDUxFq47P7dcs+rbJ/c0HQt3Wzap7LWvzgtdn9Dw/0rkY8nksHNDAVggV+r9H/LHoukqhMQLdbWOC35zQS3U7HIG+FiFwtbk/ZDmviLproVRauxgGxe8m4AAv8vvdS72g0P03sLLk66MFUFNZhoBRndAQ4E7ma6MHBysA6DFRWo8l6do3Qg6kokau9AQAvZOnRXBAzcUCU9MouG5P16mo0Py1HIzzsWGHioHEVAN6m6+Qt28zBHHYwRKHr+MtJKzz++as7GklrrupLh665PH1XI+Nr5dfo5mJ4/K1DOxq3FuVohEukHkLCGSYV0PX7SEnquRSOhDNMKljSaK16LllBA9NjGI43qFv2s7plP1XgTgZ9UD+IA/JB0grnktZc6Su55cnQmDe4fcB+9uGB4jWanyYf3FoM524tqtEIDUwPY/opfXhPihYREoA+tITFh5AumGgWoxGLDykHDUwfwNL8v2045HFWvnGnhDdnzBqcf8KOHHyYc8fFnoKl+X9775gajdiRgw83O24gGzQwfYzppzY7APcYO2y33mG4BVa/pNOruRm5GhqTHJhoims0WS9eo/8fAAD//7BDnqfZ2hPbAAAAAElFTkSuQmCC;container=0;fontColor=#000000;" parent="1" vertex="1">
                    <mxGeometry x="410.505" y="504" width="80" height="80" as="geometry"/>
                </mxCell>
                <mxCell id="618" style="edgeStyle=none;html=1;entryX=0;entryY=0.5;entryDx=0;entryDy=0;strokeColor=#000000;" parent="1" source="399" target="400" edge="1">
                    <mxGeometry relative="1" as="geometry"/>
                </mxCell>
                <mxCell id="399" value="GitHub" style="shape=image;verticalLabelPosition=bottom;labelBackgroundColor=none;verticalAlign=top;aspect=fixed;imageAspect=0;image=data:image/png,iVBORw0KGgoAAAANSUhEUgAAAPAAAADwCAYAAAA+VemSAAAACXBIWXMAADddAAA3XQEZgEZdAAAAAXNSR0IArs4c6QAAAARnQU1BAACxjwv8YQUAABiOSURBVHgB7Z2/cxtHlsffG0BnytqqxdpeexWZqiXvSO+WCGWXCcw2s5ztRaKyyyRll4nMLpP0F4jKLhMZXiQou8xDl21qTboMZ7pbn01XnS3aBKavXxOwYRk/Zgbzo9/M91NFE6IJkQL62+9Hv36PCAAAAAAAAAAAAAAAAAAAAIBfwQRUsrbWXh40qGWYWmxoefR1M/Z4EszUk89RRCfcsB+GThoDOnn+POwRUAcE7CHLy+3WhUtOiG1DIlCzYYXZYvmzFSzZx5QHTCf27+7ZRyd2KwiJg2/tzw2DgHpHn4QhAe+AgEtGxNq4SB0OrGAjc53PRbtMfiIi7lkzfiDCvmA/YLnLBQIumNU/tUWgHbGq1tp1PBZrLOwC6hkRdsDP7OMuLHWxQMA5I7Fqv0E3xLraV7uTm/vrC+dueJcD3rexdRcWOl8g4BxY+XO7Q4PofSa+od3CLsq5hTZ71Aj2jz8OuwQyBQLOiJFobXy4VXkrmxJ28TN1TcCPIeZsgIAXwIk2iq7bl/EORJuMkZgbEe/AzU4PBJwQyRo3L9GWjWnft3/sEMiC0MbMD8++o71eLzwhEBsIOCYuexxFN+Ei54hNgNkFuQerHB8IeA7nsa25R7C2RdOlBu8gVp4NBDwFCNcPXKwc8I49X94l8Csg4FewrrLEt/fqfvzjGxDyZCDgIWJxeWAeQbh+AyH/ktoLGK6yTlyBSINv1T1Grq2AXYkjm0cE4aqGmXbrnLWunYDdOe7r0W0yvE2gOrDZ7n8fPKzbOXKDasQf19s3mhfME/tu3yBQMbjTuEB/ffOdy99+/fcXtbkRVQsLDHe5XtTJra68BV5dv3o7Cug/7MM1AnWhHTFtvfH7yz98/dWL/6IKU1kLDKsLhnSbhm9V1RpX0gL/49rVm4OA9ghWF9i8pWG6UdXYuFIW2GWYL0b33PU+AF4lMA/63wU7VcpUV0bAcluIIvMElVRgFlIA0jC8WRWXuhIutCSqrHB37cM/EACzaVUpwaVewCvrV+/bfXXbPlwiAOIha+Uvb7zzTuvrv//3f5Ji1LrQwyzzE/uwTQCkJ7RZ6g+0utQqBezGirB5ingXZIHmuDggZcjtoX5gPoR4QVbIWrLe3IdSakvKUBUDS7LKvtpSVYV4F2TNkrXEf7XJrW81JbfUCHhl7eo9Yv53AiBf/vLG2++QTW49IwWoEPBQvNsEQCFwR4uIvRewOyZi/jcCoFB0iNhrAa++t/HIvpD/SgCUAnfefPsPy1bE++Qp3gpYxGsMbREA5dL2WcReCnhYXQXLC3zBWxF7J+BhwgoxL/CNto8xsVcCRrYZ+I1/iS1vBAzxAh34JWIvBCwdNAzzAwJABdx5663Lvf/96sUBlUzplxnOx3aaDwkAXZxwwJtHn4Sltukp9TKD3CqSLhoEgD5asnbdGi6R0iyw9K+6cBG3ioBu5Cri2Uu+VlafrdIscPN1TAIE+pE13Lzo2heXQilJLJdxRqEGqA5rZWWmC3ehh+M8nxIAVaPBm0WPOy1UwGiFAyrOSdPwtSJb8zSpQIajTpapTNim/w3/lHAwbFo2kGkR0MfwvTT2s30PT1imMJBZpvJoDdf4JhVEYRbYj0or7h4fhr96cd1EhyVq21dDPq6zMW14CZ7hRMqhFeozK9jwgqFwkqVbWbMhGpcdovFdu84KKUwqRMDDFrBfUMnY3frW0fNwN873SoFJFNFWQOZ9iLkkxMIS75mIHvdPKYx7VLOyviEC7lCZFBQP5y5gn857+y/5d2nO687HttAd626/D3e7CLjLAT0++4720rxfK+vtOzY4uk8lUtT5cO4CHt7t9WDYGO9bt2ahtqFuM1qiG9aU34NVzhhrbY3hx2xo7/j5YpZruW1Doh/MN1Q2gXlw/MlHdylHchWwT0dGSdznOKyutbcg5AyQ2Dbih9ZFfpCltfLCjRZydqVzrcTiQXkVKq/SIOpShshmcHR4cEU2BnGXCCTjPCm10/+er1iLu525q2nYi+t+ogHx3CgnchOwZJ29sU48OWOZBRBycph5txnxtVyE+zNd8gBXavk65RZC5uJC+5J1HmGIH35+GBYSh9tjjG0b+9xGsmsS3LWvy86iMW4cXBz8o12DnrwPTcNX8jAiuRRy9AObATTkE10qCLEqdgPbHTBtGzI3KSPscUpPzj/tjntiX9ovXeFCYB8PqMcNOmkMyFmy01M6mWXVxJ1bWqLWoEEt+1y3uO3zl41xHy1metctejbtzBa/HAdFfDfLHMQ8emF4svLeRo88mV6ZV4FH5hbYHrlsmcif2FfggK+VcfFahmXZc+T7sUMJiQutUO2bEloxHdjn9aYVLBSBy7pfomV7Hr7M7ISwIV8mY2KLQryfwUvaLuO6nX39HzBZb8gT7GvxgfUE9yhDshfw+sYXvmVmjw8PSu084txqm7F+9etiVe1/uvZDEi5h2d0d4vJT5Vpgs7yGrk+y1pIPsMdCt4pwl6fhw3nwOHmcDWfqQnuVuBph3U4qmZFb3Q/oibWsz4KAwrRFCj4w/L27NBaanLdGcsc2Url20C/J6o4jHkzpPaPGGEtobVNGZPbv8/em0eT6Z1B9fEumDjnpv+QrWW1umR0jDQI/ixps7NYjUEtOl8hHD6eV5bFSJgKWnc7XOUYuYwtqiWSiyUeMuZ1VM7xMBCzWlwDwEE+La1pZaWZhAftsfQHwFdFMFlZ4YQHD+gKQjjNePBZeSMCwvgCkh8ncXPSiw0IChvUFYCEWzkinFrDz340H9y3nYHCpoNZ4f1/bZqQXscKpBTxoUEfDZfaA6bcEaoncSCL/WcgKp3ehIx3us6H4hfegWlz4Tke3FDbpb62lErDcstHSSobhQteWqKljjYqWXPupFKQSMGd4zzVv5MXJs6UJ8JfhFUgdDNJ5tIkFPDx8vkGKaP5G0RsJssOYDdJDJ42hSSzgPusSryPyP1sOcoB1ve9pklmJBexTh4PYGHOdQK1YXW1n1xKoINIksxIJWObOKO2D3EEcXC9MU5/XlSaZlUjAHOhJXr3KhUsKXX+QHta5Vs0g2TpN5kIrqLyaivRuArXAFXAYnYnLpCc8sQWs2H12d0IbEe0QqAVykV8a7ZNOWknc6NgC1uo+O/Ea3iyrNSsoB9eD2rDKTTuJGx3fhVbqPkcDvgvx1hPpBkqejFhJQhI3OpaAJSWv0n1m3vn8s2wbaQNd9F/jDxTOrIrtRscSsLmgL4Mrb9rxp24HBjVG4mGjMR6OWXwUz4VWWAghcS8BQM6V7sqIF9JETM3NFfDwTmWHNGFdZ8S9YJzBa7StzJWOVXw0V8CNH3SJV96k/vf0gAAYQ1zpiPguKaJxcb724rjQHdKEPTrQOnMI5MtwMmCX9NCZ9w1zBcysJ/4V61vkDFqgEEVnw3G0N1PA6krSlB7cg+IYjjvtkgas9ubFwTMF3DzVI15YXxAbRRv9vGYUs13oQFH8C+sLYiJWWE1GerCIgBWd/zYUlsyB8jCGH5MOOrP+52wBq2kKxvs49wVJ6C/pOGpkmt3Xa6qAhwksFV0s2BDqnUEihrODu+Q587qqThWwpgTW2SkEDNLA+6SAWQUd011oPe5zF4UbIA1NJZ4bz7gJOFXAiq4PqthFgX9I3kRDNpqZpsbBUwU8L3j2hgaFBEBq+Bl5zqz5Xupd6OOPXWUNAOkI/E9kzZrvNV3AKjLQ3CUAFuFH/z24WZnoiQJ2Xe0VYP9hBwTAApxd0lGRtbRE8QVsGkrOf/X1OgKe4VrQKlhHZ1NC2okC5oaauao9AmBBNKyjIEhigY2S4d0NwvkvWBgm/pI8Z5ompwlYhQvd7MMCg8WJyH9DME2TwZQvqhDw6SksMFgcZv/XUcD024lfn/RFe3D8LikAJZQgE4wKC7w86euJB3wDUDU4UODJsYnvQrPSKYQAVBVOEgMDAHQwOQZmHUksAOqCoSQWWMkxEgBZoKTuoXoudJzZMQBUGdUCnlbgDUBdQBIL1B4tlYeTUC3gfhPHXWBxtFQeTkK1gM0ALjRYHC2Vh5NQLeBpV6wASITiY9PJAlZQ3C1oufYIvGeZ/GeiJieXUioo7haYSK3rAzxCQRKLkwhYC9YC/44AWAAt/d+mMa2UUokFVtK7GniLlv5vhrg36evTSil1xMBzBj8BMBc1I4QmM+U6of89gkZcuIREFkgPsw4vjnly+6iJAtbQI2gM1TsoKBctJxmRoW8nfX2yBVYSAwtRBAGDheiQAqZpcpqAe6QE6wJdJwBSsLLW7pASkrnQkSIX2lAbiSyQCkUJLJNEwBeMrpGdzd/AjQZp0OO9TSuumijg0yVd/ZbNgG4QAElhHfGvcPRJONGoThSwloFPIxAHg6S4+FfPPeCpBnVqKaWWaiwH4mCQELu+FXltPDWknSpgNqxq9m7zIm0RADEJyLxPSpg1BzuY8SRViSxS9IaAchH32SgaXjArnJ0l4B7porP6J903S0AxcGBukiYalNyFHrxGXVKGMchGgxgYPdlnof9/KQQsmWgtnTl+wpjbSGaBWVgvbUub+zxrCufsC/1GnRVuNV+nOwTANCJzjxRhaHYyeY6AdWWiBTbK4htQGNqsr4NnJ5PntdTpkjLkDZI3igB4FWXW1xHM1uBMAfeXtB0lnWMicx+xMBhHpfWl2QksYaaAh4ksjSJGLAx+iUbra7U3K4ElzO1KaQw/I43YjPTaWnuZQO1ZWbt6T6P1jaO9OG1lu6STVp/NIwK1xm3izNukk+68b5grYI0FHWN0VtbbcKVrzIDNU1LK4GUGAnZxsF4rbDH3UGJZT1bWr97X6Dqfw9158a8QbzKD1jj4nJZNYDxBVrperK5fvW1FoNn72o/zTXFHq3RJMbILNy+aJwRqgXhcRm/c6+AgnuaYYrLy3sY3ijoYTCYwD44/+egugcoiSSuJe/W6zuf1z0eHB1fifG/s4WY2pf2YtBPxnZX3ruo7DwSxqIJ4HczduN8aW8BsaI+qgOFtiLh6VEa8FhNQbGMZ24UWKuFGj4A7XRncKYNNVFZBvEncZyHRfOBKuNEjxJ1e3/gQ1Vq6+eN6+4Yx1bC8jgTus5BIwJVxo3+mLW4XRKwTKZFksqcLVfEKKZn7LCRyoYXV9Y0vKrPbjcNm+/jTj3YIeI9suMMy2Q5ViKTus5DIAguVcqPHkeTW+gassedIgUY/MB9SxcTrMJzYgCQWcH+JHlB16did/Qtkqf1j5c/tjmywhvhBlVzmcRopCqYSu9CCvJBUxR1wDNeLN+Cdo0/CXQKl4Y6HAnPPmKo37uf948MwcVfVxBbYkcLUa0PifBOZRxLzo0VP8YhwV9/beCQeUfXFS2J+U3m2qSywkO+ZMHdlnEQQ/NwNxETUElHZX3jD/qlDBTOyyI0BdZ8/D3sEckFcZRq47hkdqglpklcjmpSWiB/azG2msaL8QxqGN+cJxLlV8gbbn19URtz9HGuR+/aXtJZhNzK8//lhWLVjtVKQm2LN1yO5PXTDird+Vz8X8GhTW+Dltn3RfzRfZGqFmXeOPw23kzxldc26twUKeRxnlZm6JuDHxx+HXQKxcUdBDbphN0WZadWhmiJr6OwlX4tz93fK89OzstbeztgKd48PDzYpIbKZNH6gbXuof5vKQqZYGOpywHKPM5w2kLmuOCv7G2rTILKC5Y79EposkNgs3j36NLxFKVlIwM4K/2C+oSxZoKBCrLEJzH0fjhlkZ3UTHgN+Jt0FpT1o2l1WIy7MaVDHRNEGBDudpuEri+RUFhKwsLre3jWU8TSEBUTs+a0UscpWxCbkIDgwTD3NwharurRErTOmNgc2wWjMhs0Yt+2qWq7qWW2WLGp93d9BCzIsa/uCsiYwD/rfBTtpFrfSq2V7/Zd8S4OY5QIBSykjRLoQi1pfoUEL8tVXL07e/P1lSYFn6yIZ/ufGBfrr7y5f/vKb/3nxPMlT5Xd6+63L+9bCycG494tM3G37Zv7L8XH4ghTwzVcvnr/x5uWL9hfvEEiFWN/PDsOFy5IXtsBCblZ4CDPtNiLeSbpbud5Ixjz12lLY5Fcz4msaz5ZX3tuQm0CJq4dANtZXSFeJ9QruF8mxOksqcdJc+3OZ4IHnVWMm+cbkC/1/4FvuKA0kQqxvVu95JgIW3CWHHAeCSzybRsTHfwsfGOKH5CW8d3wYqr0cIj3DjeGFkjB1wxUrRZSZUclMwK4BfJSvUEYiTtrjefCanBH7ZymahtS39Dl+7gpYugRiYZgfZ+lxZSZgQaxw3kJJ0+PZR0uRpRtVOjW43JIFoo2klYbzyFTAIpSIuAir0ln509X7SZ7gLAX70xIoSzeqbGCFY5LDRpepgIVhgX+X8kaa0snNlQT4k3Th6t1oghWeA+8dPc/+bnnmAhaaBbmrPDCPksTDvrjSbJI1LtPA0MOpTaloUvLKd+Qi4LyPlUa4ePhSlOgyhVtoEZeaPGpU1N2sbL+0ReH8jgpzEbBQRELLkcKVlqOl8ly+CrrPP9Ml8AvySFyNk5uAC3VXB8mvNFpLvF2GiKXTCFUU5cPg8yHgDyhHchOwIO5qQUUUnTR9q0oScZcqimzaqMz6GVn7ed8Lz1XAQlFFFCYy99MM8R6KeLOohRcEVV/gqofBZ4asp8FL2qacyV3ABbrSrebrlGoiu3gKDSfivJMw3K16pw6540yAZD0VcTU0dwELhWV+jbmdxgoLklg6Ogy35JZIpkK2RytSdSVW/vgw3KSKwxBwrlnnX/0oKpBiGsLz3SwuCIw6X1qLcjNpG1u7AfQion0ZBtc/rVcrHXfZn5KVulYL7ha5UadvK5vmh1lX2s21yfV+rutyuLCAhzvorny4hmxLrlWMfLTsrvfuL34i0ZdDyxOefUe9Ogn2VYI+9Uyhq8ofztsiU6GFQoVaYGFlrS39nJ9SnjSsu4o2r6WQd3MHnzED/uDzz4rtFV5IDDyOi4fzProZZNtwHoC52Li3aPEKhQtYcEc3+d4M6iStzgIgNcx7eVZbzaIUAQu53wyCFQYFIGu4/32xce84pQlYzocb+RZQdFbW26nOhQGIw2iWV5lJy9IELLhMr9SK5nYNzdyHKw1yw67dsi+mlCpgQSqTOM8ij4F5krQRHgDzYHsk6kNVXekCFlyngvwy06003SwBmIrNOOfRXSMNXghYyPNmkFz8t2eTH6a5sQTAL0gxAjdPFh6tkiVff/Wi+8ZblzmnkR1LMkXgjXfeab395uW/yfgVApnz1lt/aEVM1UweeiZewRsLPEIsca53iCO+Iy41rDFIglxw8U28QuGllHFZXb+6a4Wc7djSV3BHWAHvNAZU5TY3hVLFUkoRr9xUIw/xVsBCESIeY48D3s9LzKMkWtU3iqoJ2GfxCl4LWFhZa2/bnH2hVVVimY0M42Y+MIZCbtBJs0+901M6mXRoPxp0PWhQK4poOQioZZ+3zGTeHR94bTcIOXrYpQpTJQH7Ll7B+4tfEhNbEVORIh4OBreiMzfcDjcg6tsHzYvuTvPEZ/TlU3S+I5rop7/nlQdADXJU5GHM+yreJbEmUVYHSVBTPMw2T0OFgAUn4pIbsoM6wHe1iFdQI2Bh2JB9EyM8QOZI7zLDt7TNa1YlYEEaAjQjvob+wyArZC0x86Yv5ZFJUCdgQY5iGueWuNItWkEhhLKWtLb7VSlgQUR8/OnBNSS3QFqk4q//kjc1n82rFfCIn5JbiItBIvju54fhHe0dRNULWJDkFuJiEAcX7wZ8TVuyahqVELAgbtDZa3ytoGFqqZDqLALlwbx39pKvVWm8TaVacEufLfvpzupaO5TKrWFFFSiQvo+vuYRXxhVnVMLqjlMZCzyOHAcUM6wM+A+7Y8equMyvUtkhGMPM4pa1xl1Y4xoysroVFe6ISlrgcWCN60i1re44tRhDBWtcE2pidcepvAUeR6zx0eHBFRR/VA9XlPE9X6mTeIVaCXiEFH9kPsgblATLsLzNKhRlpKGWAhbErZZuC9zna6ip1ocr2rHClWHabuJlTamtgEccHYWh1FTLVTJUcilgeO1PQqE6C3dE7QU8YhQfQ8ieMkxQSZyr8dpfXtQiC52E4eLYtRnrLcN006ZHOgRK47zBoCSoaLeOMe48IOApjIS8stbuMNOWIbNwe1uOqm/Z+0sUNn+gDJDkFMkMoi6BqXjfVtYXpF3qgGnbWuTrac+RJfNdhwbyK+sbT+2nDiXl3E0W4T5EfBsPCDgFqdxrRZ0OF0W8FmLzNP4zOLSi3e+f0gO4ycmAgBdArPIZ052AzPuzrLLEcHJOSTVi5Z/adygw96d+g7W2xvBjNrQHa5seCDgjxOpYqyyN4M87v7sFSl/WeYGONjj3mjC17E52YvMJPRPRY2ttQ1hbAAAAAAAAAAAAAAAAAAAAAAAA4Jf8P8WdqoAaqCHmAAAAAElFTkSuQmCC;container=0;fontColor=#000000;" parent="1" vertex="1">
                    <mxGeometry x="281.51" y="504" width="80" height="80" as="geometry"/>
                </mxCell>
                <mxCell id="617" style="edgeStyle=none;html=1;strokeColor=#000000;entryX=0;entryY=0.5;entryDx=0;entryDy=0;" parent="1" source="413" target="399" edge="1">
                    <mxGeometry relative="1" as="geometry">
                        <mxPoint x="280.51" y="564" as="targetPoint"/>
                    </mxGeometry>
                </mxCell>
                <mxCell id="413" value="" style="shape=image;verticalLabelPosition=bottom;labelBackgroundColor=none;verticalAlign=top;aspect=fixed;imageAspect=0;image=data:image/png,UklGRhBKAABXRUJQVlA4TANKAAAvI0UZEf8nFkzmD5B275BM+wQkdJznKG7bxpH2XzvJ9fKMiAnAnqTuksZutDo7wEzf2+497tS+nQ5oveJRoYWwz365f53njN6wbXvtJNu2Y5ZUQhICCb13pITeIYDSRXoRgUjR0CQWejEiHcVIEZRipCMgAQsBLiBSBKSF3oshQCAQEggpM3PO44eKYx5nGXOOMZb7juj/BMCpbe2J9TE59DhAAyawgRAEPAOxo31hogksoICejnX7/6Phm+JE9H8CQNts6rvzEXI8dXt3Exi/lv0TuX+ouOFL+ccowJQSBi+WsyjEoyZjl0gUZC9jl4Oi2GnsYhNFuqFLGArT18ilnDiC/99/+A//4T/8h//wH/7Df/gP/+E//If/8B/+w3/47//9h//wH/7Df/gP/0lzaXEEGrn4CCMXDF1viuKssctCUcwwdin+UgwZIcYuMEQMvcDodYydf7Z3wfi1/h4n3xw/1wJD2KLdoqK5/X7XIvD//sf/+B//43/8z/eCPSfG8Htiz0AXBfWcGMPviT0KuqbuyE9juD3j/Vo6s+Cv8pDveYsLuSBkSR7yPW9RsHJdLiHnk17Xk1W6jvy/VUWxareQ/9cqKTUPBThNPxZyA0V4p7BChe+gCG8UUmY8CjFKN7YUxfitQitRjEsUqWgTQ3YJnViITRD2UEXC7IKwFVJiGQpyvk7sbRTlYEUGoyjfVuKeKC7rxGKEMUeROcKYoYAvitKmE4sVRqwiq4QRq0AZYWCw8UOcwMr9v//w3//7D//hv1ej4D5GSBvwUD3Do36I6FxZ1Nio5FP8+/MJ3gZGpj34rzffMi4ai6+6r6ZBUbXsV0L7ssJGRF4n8b+mf2A1HpqJCl5ubzTUxK4E4uZihkIFbqDCGaPMBkIrUPnE8oZBndGVWe+ZjIGKPHQJ4q+hhkBb0dUP2hkA9UbXO+dYjX6CHxJAPFLc4GcF0nzYwtCnmZMI5o818LEkId11foY97yPlMyUMeoLTSOGDBsY8sUg8u6cRT3U7NXREG/DsRgZjTUY77ZDJTd7GOqZTbGCCv6FOf2T1RJCBjvUmM5gUapwTiQxfKGmU453MEt4sZZAThWzfLGWI453MGN4sZYQzApm/FGp8Y73JHp4OMrwZjDw84m9wY7rABdzjbWzTGTn5g8nQ5iAvcJ6RTUPk5xgDm80ccXQxrCmZzxF8Uduo5nPk6l/FjGl8HvMFj/sY0gxB3q42pDnBHXzPgKYW8tfW1HhmCYfwQZjRjH8Gj3Cv2WAmEvk8yWDmd07ZWxjKlEdepxQykpnOLdxsJHOdXzjAOKYxcjyjtGHMMp7hAZNBjDmVazjCIKYl8j2zpDHMEs7hLkMY8wPeYX8jmJbI/UdBBjCx/MPF2qf5wvhCkVhhzFOgiDi8VcBNAdjraJ4+EMbHinwijLEKQI4oHoH8V0URHjFpnWoJo54i9YVRU4nfRLFFBXwkBBykdYKTgjgDipqSBHEClOwlivYq4IAYUvy0Ts0dQnC0VgYiHEKwN1PEdFAMv4D8B+aLAadqnWCkED4ApccJ4X1QNuy6CC4Eq4BeKMjnYVon6JnKvcd9QPk+adxL7QFKh+zk35ZAUIErRIFLNU8QMDrhega/ryeMLQiuLDg24UYGv68njAoAFzb/JulRBrdTzyxuDKrwqjDslTRPWsaSKM44A5d3BGKvZtyySiC42bjlrkicNYxaSqBQNxm19BCLvZxByzyx4NcGLQcFk1XIkMXyQjA4xZClJor2oY8Ry3Dh4EAjlm/Fc9iI5ah4sKYBS4aAlhivlEQBPy9guPKGiHCo4Uq0kA4arqwUkrOU0cpRIeFEjUO5hRdzkN/PT00v4oLin5/NQn5nJ80p4ZISc85lI7+zzsws7gJTrx2pTuS248HWbi4JizmThfzOPjevNB+eiOmCpsE0KQ95nzFQsags5H32GBeMzUHeZ72vWNnjyP3fiyk39AXyPucTHvijoOtoGZaiCMcp9CmKcJZis1GEMxQql4oCTC6u1HgU4ZccqC6q2RqGQShER3NFOqEYuyn0FoqxkyLmsyjEIyZl2jiFgH3Z6yiqS9oFn/tiwD+UMF0SxDWzIubrgrhoUmIICrKHMqdRjHe9mIsSFVbWLHRGUVZWoCGKspkizVGUDZQ4IIqditREUbZjbo6wxmsW5gpjqAIfCWOiIhOF8aESNlGkKxIljBjmNgrrqGZhjTCmKLBQGIsUWSyMBQqEoTB9lZgljG+ZOyQsZ5hWIU4YMQrECiNWkThhxCpQThzBSsQKI465K8LCwUYqj8T1g5FKvrjuG6gEosCrG6dUENkY45SGIos3TukgsnSTYUp3kWEVw5R+QhtkmBIptG8MkU4ZpowTWr6fUUq00LCZUcpEsY0wSpkmtsVGKdFiO+CKoHLhrboOGBE9MWZ+bGzsmri4uLjY2Nh5MROih/ft2PS14l7GOan/qUjdzsOnfLP18OVHdnR95o1j25ZOGhxRzmqA8Z7YMOSfCjd6e9rqfVdzkE373YTY91oVMbSIFFynOn1nbDiTiVx8cujbEXWtBhVDBMffnGOLB1Y1oOiuMv4xdfN7lQwmuqqRv6esG1zYQKKZWkFEx6HxVY0iqqqYv1+fV8sQoojKQcQLk8oaP5jVDyIeGuRr8ABP1RBiemw1Y4fr6ggR93c2GTgcV02IF9/1NmzYrKIQk6O8DRrmqSrE5CgvQ4YolYV4vYcRQ0fVhXi4jvFCVRWG9thAowUfNYaY3MFgAVJUGeIKP2OFvSoNL1Q3VPhCreGLbkYKQ1QbYozJOKGuisNdgYYJPnYVh1erGSXAZTWHGV2NEjapOnRONxkjRKs7xB0FDRGaqD28XMgIwSdP7aV7GSHAEbX3HRgizFJ77YwROqi8xxZjhACbulsCxgiQqO5aGiVMUXUpZqOE+qruSzBKMD1Uc00ME2ClirtlMk7opuLmgXGCX5Z6CzdQgM2q7SIYKfRSbR8bKvhlqbTcEEMFWKvS4sBYob1Ka2CwYHmoyg6CwQLMU2XtDRcqq7HTYLgAiSqsjwHDAPV12WzA4J2qunqCAQN8prbOmgwZStpU1utgyAA/qKvfwKChtqqy1zJqgD1qahkYNkSoqCchxg1wWD29DwYOHVXTMbORAxxXSfm1wNAhQiXNAe3RSoGVFkeQEgslDRJV0VVfj8ZiYYxRYJowZioySxhTFPARRh4o+YkwFvCmkRpyNAGPZpQwXlegtzD6KzJAGL0UgJuiSFKkszCG8ga2qKA54NksZRdEupcCBXMEkRusSKFcQWQHKPGFKD5VxPe5IPLDuFPRpnou+Hg4YJUgxoOSswXxBSj7pSBmg5LFs8WQUVgRmC6IpcDfL9VObk3wdIbcEMIhb0X8zwjhXIBCAeeFcNpfEXhXDH1AWZ/jQrgSxKGgRypnFHg+K1wSQGIIKFvsTwGcKglKlzwtgBPFQOEPHPyzDQOlQ48I4FxZ4PFwdbMTPKEFZqZzLmWsFyjtO/4x5x5P8gXlfaekce7ReF9QvOF+J98cv9UB5b0+fMi5p9MLAJfNJ9RMcmGPCIBXy8HR/H67oQlcaWn6TjS/32lmAddamr0Tze93mprBpcW7j4zm9shuYeBac6O3o/k9uKUFeF3Xrl7yGoFxZKx6iQLjyGo/q5YfwDCy0mo7qtU//YwiqsfZUbWmFAdDSFOH3ahiX9YDI0j/9y6hqu0BBpBNvnuO6jYaDB+Ljb+CancBGDyWGPu7A1XvDyZDhzJjDztRBSd4g2GjpdW886iOD/iDQWOl9398hmr5sD8YMVaI/CEFVfSJIDBa9Gn6yU+pqK5PBIGRole9EStO5qHqPhwERomlOk1Yl2RDVb7PH4wPA2v3nPLDiUxU7zu9wcCwcI2uY77Ydjod1f73FnDXm8uEt+7SXZvcO3Lc1Lmrfzt534ZuwhgTuOWrRW05n4t6adu74I6vMfcv1FNntgf3u+nNo6ivvl4D3O9dklBn/WswuN3L/oR66zkWcLu/k4U66xe9we3uvwr11qcrgds99ATqrRd5g9u91E3UWT/pAu73kjdRZ723BLjfA5NQX50xzATud9MO1Ff/WhLc8dGoq86IBLd8fZuualNxcMubT6GO+sYb4KYfjfrpFxO9wU0f8EQ35VxTDNz2k1AvnVAb3Pd+j3VSx9uBO/9t1EWf7Qbu/b16qJPdTeDeL+HUPx3sCG7/SNQ5239sCB7A9fqmp/PKgkcwRc/051A/8AyGoG45Y0k4eAyb65Tyf+nrCx7EoXok5+GxYeBZnKg7cvw+tgR4HGfri57/NKQweCKX6IecZ+a29gIP5Uqd0MWl3UPAgxmr/3nxv5mdCoGHU9+TdmBh/2pm8IDqdJx/7V/+QdtQ8JjqbJ5f/33dnKjO1XzAw6pD2RMfn5h4KumfDyUejP8xbun8ySMHdGpc1hc8tfqT5wXAA60/+QaMkMKNkP4Ej/Q8vcm7nqkYnUmGvxHSEvBMT9SZ1PJQRetL/gAP9Wh9SaSnKlJXku7nqRqiK/kKPNXddSWVjZD2gsf6dT1Jd89VhI4k2eK5aqIjmQqe69r6EVtRD1Y5/cgm8GCH6EdaerK8dSPnwaOdrxeJ8mw904lkBni27upEvgTP9kV9iLO8h+u4PmQneLj360PaebridSGXTJ6u73UhUeDp/lIP8qyAx2uqHmQBeLxH6kAc5Txf/XUgO8Dz3V4HEuEBa6D/OAMe8Ar6j4GesCDdR4qXJwwceo8J4BFP03lkBXvGrug8FoNn/KC+w1HBQ7ZZ37ENPORf6zuae8om6zqOgad8qK6jj8esk57jpsVjVl/PEQUe8xI6jlQ/z5mXjmMyeNAf6zaeB3vSLug2FoAn/Ve9hq24R22FXmMleNSn6DScVTxrg3Qa28Gz3kan0cjDVlGfcQA87D76jAhPG6TqMQ6Bx/2kHqOj5+0nHcZx8Lx/pcN40wM3Vn9x1uSB66y/6AEe+Cq6i8tmT5y3Q2/RHzzyf+ksrps9cwd0FpHgmV+pr7hp9dBN0le8Ax76PrqKy2ZPXT1dRX/w1AfqKc6aPXZwT0fRHTz3/9NPnDF58BbrJzqCB3+UbuI4ePLb6CZe9+gV00skgmc/QyfR2sN3TB/xK3j41+ginLU9feN1EWvB099JD5FX1uNXQg+xCDz/T/QPGUU0APv1D1NBA7hI9/DQXwswRPfwPmgBw/UO162aAO98nUNv0AZe0DccN2kE1usbmoJGcLyuYRNoBdvqGXLKagYKOnUMs0E7eFW/8DBAQ7BWvzAUNIQf6BbOmrUETXQLEaAl9LO/KOwAbeHZ1wRbJY3BSn3Cl6AxHKFLeBykNaitSxgKWkNzpg7hhFlzAAn6A2cj0B5O1x+sBg1iW91BRpgWoYBdbzAaNIkndQZnLdqEr/UFzsagTeyrL1gJGsUSuoInIVoFuK0nGAGaxVU6gqMm7cI7+oH810C7WEI/MAe0jFf1Arf8NA0r9ALtQdPYWyewCbSNofqAp2EaB7igCxgCWsdYPcBe0Dy+pQPILq99KJiv/fsINJCJmr+TFi3ERK1fXk3QQoZr/aaCJtL0QNt32qqNgO81ffnhoJHsp+mLAa1kIYeGL8lLMwHHtHt5dUA7OUO7NxU0lOGaveMWLQX8pdHLrgaaysUavWjQVrbV5u03aSy8nmnxnpUCreUGLV5/0Fz21eBtAO1lwTzNXXKwBgN2a+2cEaDFjNLazQNNZphDW/enlzYD9mvqXlQEjWaUpm4QaDVD8jV0G0C7maCduxWo4RimmbM1AA1nSL5WLho0nQkauR0mbccQbVxyCGg7g3K1cPlNQev5oxbuE9B8dtXA7TBpP7wea95uBYMGNFbrlhMOWtD6WrdhoA29pG37HjSiEzVtZ/20IiWdGran5UAzuk+75mgP2tG3tWuTQEPqk65V22bSksDXGrXLBUFTWkub9qwyaExPaNEcb4DWdJgW7UPQnBbI1J7FgQZ1iebsuI8WpYbW7F5x0KT+ri17WRe0qf01Zc63QKPq/VBLNgE0q59qyFaDdrWoTTOW6K1hgXVasashoGVtpBF7XB60rX9owrIbgca1txbM0QO0rpbbGrAPQPv6gfYrFjSwAc+0XltMWhiYq/Ha5w2a2OI5mq4zgaCRXaHlulkUtLKV7Nqtx5VAO7tZs/WiPmho62q18tqCpnaXNsvRDbS1TbRZA0Frm6DFGgWa26YarMmgwU3UXM0HLW4LrdVykyYHErRVa0ygzW2iqWrXFnXjNVTt2sJuXe3Uz9oC7yat1GVnkbdSvjbqsrPYu0wTddlZ8C2epYG67Cz8ztI+XXYWfws+0jq1O4vA72mc2rWFYOtFTVO7tiDcUcv0vrYwvEe79JZZHK6er1X61ELxVxqlDyEWBz3WIjmGgdZ4uAbJ1g80x+YTmqPszqBBru/QGD1pAprkZdqi5OqgTQ56pCW6WAq0yu9oiI4UAu3yPs3QLn/QMFfI1gh9ZwFN83ht0CTQOFvPaoDyBoDmuYFd85PeEjTQs7U+t6uCFtrnorbnRBhooxvYtTxb/EErPVvDE2MCzbRPklYnux9oqWvlaXMeNgJt9SeanDOlQGNt/l2Ds9UfNNdln2ltnNNMoMHuo7HJ6Ara7JWamstVQKNd4KqGZkdB0GyH52plnNNNoOF+TyOT3gW03es1MafKg8Y74KoG5lsf0HzXfKl1eTkYtOD9NC7Xa4E2fJGmZVtB0IhbD2pXcqNAO140WatypRZoyetma1PWFABteR8tyouBoDn/THtypjJoz01bNSbOBd6gRfc/rim51wY06mF3NCSbC4FmvXqGVuT5INCyR9i0IUfLgba9r1MDkjveAlr3cdqPUzVBAz9P45E/wwpaeNMqTcf5cNDIW7ZoN+yzfUAz7/2bViOpAWjp/Q9oMnKneoG2vuAJDcaRaqC5DzqhtcgaYwYNftAJbcXuMqDNDzqhoXjQFzT7QSe0Eo4lgaDhDzygjTjdALT9/gc0EM/HWUDr771D87C5JOgALd9rGy60Bn2g6SsNQ8YHVtANTtQqOFeHgZ7wHZsm4URj0Bm+kak9SBlkAt1h+D2NQdZ0P9AjFj+lJXCuLg46Rf/t2oH9dUC/aJqjEbj2Jugb+73UANwfYQW9Y/hdT9+zCX6ggyy836OXPScY9JGW2Z47+/LioJ/s8swz59xcCXSV5U964Jyba4De0vsLj1t8bdBjdnrsUYuvCzrNEns9Z/F1Qb9p+iDHI+b8qS7oO6uf8XzZ19YA3adXTL5nK2d5OdCFhid5sLLmFwe9qNeneR6qJ58Gg560xmFP1LUoP9CZmkY88zQd6mYGHWrR9Z4k++aGoFdtkeQperGoLOhYLaPTPUHXxgWCzrXIUruHx/lzRxPoYKvu9OQ8+7Ii6GVbn/TUXHivAOhoTb0ve2By17UEva058raH5XJ0COhxvaOSPSe561qCbtc76q5n5MK4END1WiNvejwyVjQB/a91wGlPhiOhvy/ohF/f66m4Oqkk6InrbLB5HtK/aQK64+KfPfYovNz8pjfokn2GnPYU5P86MAB0zM3ict1/zsNRRUDvHBJ91b13/OMyoIs2RazPdtM5D48rAzrqoPdPuN8ciWNLgO76tS8euNNs+6LCQJ9teSPuuXvs2cZ+QaDn9uv/c567605sWy/QfwcPS8h3Wzn/nFobdOMhwxLy3VBP1r8TBjrzQoO2v3QnOU7ENDaDLt2v2/dP3EOP1g4oDHp2S/M559w8L36JrmUCHXyZkb9ku2lsidObW0E/79NuwTl3i/3kwg7+oL8vNnj9A3dJ7pFZHQNAv19t9Lan7o6s/02L8AXdvzk8ekeauyJ5S3RjKxgGmqpHbbjnZsj944veJcCAsEy/2BP57oHbW6Ibe4OBoV+LCduSVV3yT5PeCAFDxKJdZv6WpsLu75raMRQMFst0/2zXPbWUf37dx68XAcPG0DfGr0uyqZrk3xYOrusDBpDW1/rP3nXLoTr+2hM7onkgGEz61uk/c+tFmxp4eW7rzIH1CoCBpaVCxw+W7LnjkLPnSTsWjogoCYaZPlU7j1kUfz5LkrIu/rLko571QsCoM6xBrw9jfzr9RE4cD0/u+mZC3wZFwCjUt3LrARO/3nrsr1wJSDufsGrWyG6NilvAuDS4Wuv+4+au2vXH9XSRPLn2x85V88e/26VJOR8wWLUWe61V96Efz1q2cfexS/cyuJLz6MbpA/Fxi2dNeL93yxphFjCQDSxVvVFEt36R4ybGxC6O+yE+PjHxTFLSnbt3UzMyMjJsr/AyIyMjI/3u368kJR1O3PlT3KrYBTGTokdE9uoWEV6hiBf8v//xP/7H//gf/+N//I//8T/+x//4H//jf/yP//E//sf/+B//43/8j//xP/7H/1p5r6bj4w5d++vR3VM75vco4uEr1nfRz+fupt29lLDknVJ6gkar0/GVHfvf9fbY+Q0/7MRXPj6qgE6g8e+o4MMxVo+c9cNU/O9PxnvpAAp850RlL9b3wNW/iMpebqT5q3oZFbeN87iNykOlbeM0fo3S0JVLLR410yJ05VcmLV94Jrp2tcmTthRdu1zDVyoVXb3AgzYdXR2j2bMeQdf39Jh1Qte/qdUbjwSfhXnIQp8QeBqmzSv2ggLGecjWIMXvtXkLkaSzqkfsNaRZS4sX8JwGrvKIrSeyUYs3AIlm+nnACuURsYVo8HZQwR4esGFIdYQGL43M1x6wH8ls095VRLInPWCpZFK1d53oZHq+CiPdwpq7kXQwZPFqSKix5m4ioXKLV2dCXTV3MYRqL169CfXVMYQvXpGEIv/ff/gP/+E//If/8B/+w3/4D//hP/yH//Af/sN/+A//4T/8h//+33//t58CpWo3jojo3L179+5tI1rWKhOkjoIqhDePiOjWvXv3jhERDV8r4auKAkrXbhwR0bl79+5vRkS0rFW6oNugVJM3u3dpVd4iBabg4IKS4lWpddfuHZoV442lcMV6EREduv89IqJh9TLBFrmwVukwYub3+6+k2lDBp1f2rZ03+o2KVvXhX6fb6Pmbjt544sT/nvPgQsK30wZHlFEfXtU7vj/rh4NXH+Xjf3c8vbLvh7mjOlWwqLiKnyRk4D/bjs9rKiLfKu3enfHNpj1/3nia4cR/zstIvXL0l7Vfje/XtKRZBsxtY8/Y8Z8zfvukNAe8q7310RebD93MQiWfXv/j528/HdGpdkHBle05Y/N5G1LMv/7TjLfKqgRLzcHzdt12IsXnx9d81CFEJVTqE7P1Uj5StF3aMbNbaTXWcT/+15uj/QRSrO3oZYmP0OX5N+JnDwz3FVnwpPv4H51727BUoeesX27ZkWbq4dUTO4aKyL/N5PiHSP3pr5Na+spd6Ftz979A6tfWjqpnkbqA9tN+SUPqaQnTWvmqqrpHUMkH/YVQoPXE7Q+QtD1pRWR1k5DMUemo5L4qTPi2nJrwDOkn/zS5iUUg5vpTDuQhq7ZDU+ub5cz3jQVnkdn0rSPKy5ml2YzDdmQ1N/GzxmaV5LvAjgr/EsI5n7ZzTzmQzWc7RlcWTqkjqHDeGGqm8MmHcpHdzJ0fVBSCX6+NT5H1tPW9/GQrLCohF1m/8WVTs2QF9N+Wgaw/jusTqIJa3UDlk2txrMyHCdnI9p3v3vQRSbMnqPwGb0I+b655gOyfnV6NcwH9t2chH7O29y8gTyXGJjqQjw+WtDZLU/Cgn/OQjznbe/mpm8Bv0KXpjTlVcdJJ5OLzzb38RNElG12515+IV8d1mcjLcx+EcMvU8vuXyNMXa1qZZMinT4ITeZr8eQUZMr+xKRd5+nxthEm9dE5GFz+pyqHCH5xFjr7c0M4sgtY56NrfvCnUin2CXM1ZXpVLxSdfR/7emhIqO7W+foL8PfCOr+SU/ewv5O+1j4uok8Lr0PW3gjhj7rg1D3l7Z0YZ7lXORFd/67KA9/5E/jo3V+JO+Fob8jn3+3oSY+56ADn9OCZMYpputSOf89bWViF9HiPFLVwJ+uQv5LLz57Z8801C17/jmnJfPEM+58cG88Tc9QDy/Ghnk5z4j7yGHM9dVVNOrH2OIc/3vqEyiscj0R78KB/7AvmdNNibY7ORYGYxFzTZ7kB+p/bmhqn7ZeT92b5m+fCLfoK8j68rH9bIm8j7s91N6sE0NAOpJvtxosZmB/L9QbQfr6raKOA6xSL+h5xfH8gFU/ezKMLLvU1y4Rf9EEW4pYZcmPtfRhGe6KgWyu9DwtFcqLbZifx/GO3Hpzgk6ayqzOuHkf/Xa3Cg7VkU5cm2EmEe/hAF6dxUXiK6XUZRHmmqBszRWUj5gRd75ePsKMbkKCuHSthp4LdK1NuHQnzRgbUKP6FI97wmCxFJKNDc2QGS8NpeFOmGUtJX/RgS785awbm5KM4rnfgzHolm+vynCptQlLYBTAXOz0Ox2r8KkoHy21GwDyLNElB4mR3Fmv2pn9R5TctD6tvYMr+bimLdXZ03x6lgl//gPzsXxZnfjaFeD1G8j4aYROc1LRfFe7yW6EyRT1G8t16XuAZJSP+ZhaX6J1G49kUBXAmwk/ni1freQ6G+rMVK8Z9QzAcriK3heRRy/ue+Qiu/D8X8Q2FJ851vRxbD2fFfYEcR3+3IkzZI9vCrlP8fivaqLxOm4Rko6uwPLeLyX+RAUV9tJS7LR9ko6rS+UtbyOrL5NjNtb6Ko14XyYwSd1H+zfJiN4p3BQvE9KPLjVUTV4DqK/EsfQZU7iiJfFyRdBZc5kdFpjBT4FgWe1psbM+mg1z+9dhxFnF2EXtc0FHvWcCGZJ+Wj2M/VENLbmSj2u60kq2MyMruAjbpXUeyrAjgRSyj4b6axuSjmGGq+S1H820LEU+ogCj9ntEk4getR+I5ZFokq/AMyHMuC6ZM8FP2NRnxYRagsABTfjaJONqVV6QLKYEpT0XRKRxncGSyYOrdQBv8XJk19UpHleQyE7kMJzJ9k4kEcoXIAXdJQ3A2T6pqBcmj7QCimaQ6Uwxs1hfJ2NsphSlM5KrYD2Z5Br+E9lMP4QLFYZqPIJyRkinGiNG5cKI7AHSiNL/uLwxqL0mgbJUGmdzOQ8ffIDc1FWbz+mkga7Uehb08n8GeUSYcwql5FmfzKIojQRJTJpRbZKb8XmW9DzHs5SmRWX4FkotjPkSmVhJLOWMt0lMtfAoRQ5SbK5e5AqTGPy0L2S9AKTkS5jDEJQ/RPqdRJQTXWLw9l80wJATR/grJ5qZzEVPsDOXgTSJe7jLK51lsdIZEOmajGJqKE3qvNvd45KJ8plWTFOjUPebicVP1UlM/EQu6DgfmowkxLUUqft+XcOJTSlDJyUi8J+RhBqfNLlNGr5dWQk8RIlHl2LGtRUnO7cW0SSuq5AAnxnWtHPl4zEeprQzlNqaaC0il8gmrMewtKq+1tjs1Dad0gHy2vIi+HAd1BDpTVtHD1k0RgOqoxn10osY73eGVajBLbXTICljqRl0lmOiNRYjObqp7NrpuHasz7AMrtSD6ZlqPMJvtIRYdk5Ka9MZD9BKU2u63aGeeySajGvHeh7A7n0iKU22iJKByHHP0QyI5Eyc1urXJec9U4VGOWzSi9joEcmo2Se9ssDb1TkaMLgGwkSm9mY1VzAVz8Pqox01qUYHs37kxC6X1dEor9hDydAWQHOOQHM+upmWgX9XOosiUoxbb2nBmF8rtUCkyRz5Cj6Z2B7Js2lOG0murlSYBrWtlQjU1ASc6szZW3HBJ0TQbK7kWexpcEsk2yUY7vlVQtE8Cl1Z6hGuuL0nyvJEcaZqMMBwrPPDYLOfq4H9Ct8Bhl+VyQSrnm45Kid1CNtciVJ0wK5Eb5RyjFDURX7QjydF1hoFv4GsrzXm9V4ogAV/qfQjVW5SnKdIKFE4Wuohz3Ept1Si5yNLkTEPY9gjIdZ1IjM8Gl65Gv6Wd+Wb1wcvR7kZGRw6MnLlgVf+qJlBS8jHx9cGzbt3PHRw+NjIyMip66aO1vF7P4gl/wwbIb+frkzK7VCydFj4iMjHw3evKC73aefsSLSKHVPYscdS4LBMpxyNvc26cPxG+Ji4vbvuv3pAd23uAEObHdOrBp6czoMZGRkZFR0dO+XPPzmUeEtltcEo3czNjzxZB6gaBkQPjgL/ZkyIVpO3Lz3k8xvav7gJJFWoxc/kceN7AfFz5HbqbvXjA4PACUDKg3cN6+Z+yNE5jvHDty9FpLID0G+Wm/uGFqn7oh8B/NxZoPmbXzLkcc7SXDeSHu4w6lzaCkT63eM368TeGAH7iytZ0Pz7ZE1TKDa821orZlyMMU5OPdFQPKgIt9m088YONDVk0O9EA+Ptk4oroJXGuqNmZbOluR4mpxFTlqn+cLpFvYOJG5c0JzX3Bl4a5zjtr5gE/LyYPz1KwOQeDq0E4LTzlcE+8Lriz9CDl4a14LC9C0tpqfLAftHTw4/kl1IFqw+/eZHMCbwcxVe86Dq583NgNNa5vY+wz1F1XAEidyNKke0C6eijy8MKuZFSgGdV+TxgNM8peDvO3vFAGqIQO2PFfMMc0MrrQcReaffNXEBJRNzZZmiK/EE2T+xuSKQNqnx9Z85nAba74XkfnU+fWAtPn1uGxWWgiq/V/I0dwpVqBtPYLsX55aEQhb2qzMYA/jJMC5b1AQ0PZ5a1ueIqcagWs/RdYPD/IF+v6RJwRn/h8ynr+1nQnoF5tylzUczthSZH1vLy+gH/LxbTaKC6lQHPL0SDWg/hmy/nx5fSDv03c/c9hfdI/nVAAWC41K+k9n+pvBtc3tbDm3NQRWm+1yimwCsp31VRlg1Nr/DGNZVZjqgmzbvn8NGDX3P8tAKoioZypyNGuMGag3dzB2dWQBYLPKspeMZZYT2rX3/IDZhvMuvcKl2Ibg6qC7yLIjrjKwXGOzU1j1bEy9iAkBljseZwpPeTFUPI2pnNgSwLCp61ly2wVUbBvydE8ZIB90F5k+3sUE7IbEpDOFRy3iutjDDGwXeWPk1JiPh7UuAgTXI8tbawDrdXYKyu8aMpyzsAiw/lYSSziboQRkOH9FKWDc3P8OsWHiiXyKHH06BBjchCwfbQuMB0zOYAk/FdXV/mYQZxdk+M+mwMPW54Q0HxneUgY4aB7+mCF7XWaGIMO/VgUO+k7JopQXJJoye5CnW4sBgz2Q4cvdgIOFv8xjKL+2kJ5Fe4FAA5PZSXvXDHy0jHwmnvp2ds63Ak4GxdqZwVNWRsKesnOjA3Cy1A5Cq0Es5jFZyNGH3YHF4AfsPBtrBT5W/pUdPGkR0IrCINSlyOz6IsDPYttFYz2LrOZN8wJ+NjjHDH7CyBZkNX+2L/Cz5wMqjhpiqXYYebo6GJhcicyuLQL87HafGfxYOFdagFibO1l50Bn42vOJWCYhq39WA656Tbezkl2BiW7I6rnawNWQzUS+AZFYJ+ciR++8Dmy2QVbvvAFcDfyOmewKYnHM9QGxWi8go7uKAG9L7BNJmRxGHHO8gLdNbjGCv7Lgl8yI80sf4O2ATAr3Q0QSfgY56ogtAGx6X2dldUHgbedURnC3UP5qDaIdiWzaxpqAv6YJDnFsQTZTI4DDBTcxgh0YmIFspr0BHK542nWOCBCH72w7cvRSE2B1PLL5rAdwOHQ3I9hFIPHBINpCT9h42BT43DZNFC2QzWMlgc8f2tm4ZCVX6iUbJ0oDl32WuWwMiKPZVeRo/mc+wGrRTDb+LA9cNk1zsHHNSxSOKSYQbiwyebwY8LrsWTGYT7Ox0ht43eYpEzia3AZkco038HqYzTUxIIyAr53I0ZO1gN2VyOT3PsDrjhlM4IeCyOwI4q2az8R2f+B3wQQhDEUmpwDHq95m4mkwsSbI5FTgeNMHrvgQhNH+DnI0+xMLsBvuZMHxEXC82g0mMooIIbkWCHgzshhrAZ5bVwvAO5kF2wDgethJFjCGWCILtv7A9dBfFXvSCUQR/D3y9GBlYDkBGczpBVwPPcECfimCC8VBwK85WZgLnDd9yb8oZDCvG3A+KJGFjGBSEchgdhfg/YAHymwoDqLokYocff6eCVhuigxmNgfO+//KQk5x/p0IBhHHI4OTgP/zeOd3n4HstsB9/wMM4BxSiQxkRgD//aJv/yfnT43B9bwothV5uqsksJ3IQFp94L73TgYwlnsHAkHEdZHB6SDCOZyLRvq2diBA/wMMZBUh9DrSz24DQjS3W3r9FbL2fVwCKHJiyFPkaNoAYDwC6afVAgFaNjOQU5xzJwqAkHcwsBDEuIxrvg/pObqBEANO0MPZhP6gZ2sL4izUbMCo6HGRnapYgCgXyiQgTzeEAuuJ9DLDQYjeu+jhYr4lBYGQqzjprTEJwrSeZ8ORfiQIMvgSvaf+ZJoieUdPkFgOmEe/QI7e6wLMN0by2U1BkN776L0M4dntUBDzMiS/3xtE6f07v0wX6X0OwiybSg7fJ7OV3gegZqocRp4uDwT2fyTn6AbCDEoih5M5ll4VxBzyktyVYBBnyDVudUDyG03igIbZ5K6YiJSzk1sMKsY6MRc5eqM1cLCcndxIEGiJe+Tue3PL1hoEPRmpZ1YGkVZ5zqs95M74gkj7k8NORBYh9f0WFRN+CjlqX+ALPFyE1JeDUOtlU8N3uDUGBG25T64HiLUnp6oj9WflQayx5H6jUeA5tb9CQbX4zMpHjp5rAFws+JzaIS+xQD9yp3i1FkTdFakvBNHO59NCcl1BsF5HqDlKkXgXiec3AtXS9ApyNG+aF/BxOBJPLQ6ijaWGdfl02V9YP1E76y0cr5M88kqltgyEWzaDGE4hcZjaJFArAbFO5Ogf1YGXx4g52oFwvY5RW8ylvDog6rB8YjnVQbxVXnLoLSR+xV888Da1GyYCVZD4QbNaeeMOcjRrnBl4WR2JLwABl39O7KkPjz4BYX+MxD8EEY/i0C5ijgYg4s3EsCWBecSyyoI6CV6DPN1bDvj5BbHzPiKCwcSwD4eOmMV1nthJi5BMh7kTZif2FQg59CmxVa4zPyA2DtRJ94fI0WeRJuCn5REtez0Qczyx3/iTVx2EXQ1p2+uCmKvl8eZ9pP1XgJhgCLE0i8taIu0TZlVSdCvydHsx4Gk7pL0IBF0yk1Z+MHc+BXFPJhYLov6cNwnEuoOoE2lhO5d9SctZD9TIoKfI0dRewNcVtFIKiApG0sJBvLntK7DTtJ4WEpZ/Cl9C8mkdAGHXcdBa5ipTMq3VoELK/IY8jSsEfDWn0hoIwjafpbWLNz1B3BWR9mgQ90C+DEXSjtrigm9pPTC7qAmSfl5UfZhGPUeO3mkPvG2JpI+bxAUtaeUE8CURBP4hrZtWgZlOc2UnrTgQeFgWKWzqorm0YkB1VD6EHHV+HQDc/ZpWBIg8nhT240sTke2lFQki78gTryxS9koig3m0PnXRGVLPgtXG8Am5yNErzYDD10ntA6HXcJJaw5VfQOC+2aSuWIUGf3CkFZL+DoReKIPUEdeEOklNArXxHDmaP8sHOFwWSTcTG6wldY8rdUXWDkkPAbG358jnpOwVxAazSNkDXTIAKWcGqg6enqoDXB5G6ggIvoaTElbjyG8g8vmkUrwFB0n8OE7qRxB8WA4lfMsla0gtBLdFzgQr8PlHUm+KDnaQ+oAjbYV2mtR4EP1AbgQ5SDUUHawgtcQl9yjZSrotfq8MnDY/oXTbLLyWpHbx4xSIvICdUnaw8Kz3edEBKR8G4VcjddoVpZDyj+CmeD7SBLx+DSlPBPGfpZRu4kak0Foj5TgQfwwvZpAaJD5IpGT3d0FvUu3cFL+WBn4Pp5QfKgHDKGEVXmT4C20CqWYSUNrBid8oZfhJQD9K2MIFCyndNLkl0gYCz7+jtAsksOBLSoN4sQSEvp3SJZDBXznxlNIykEDvdEoTXHCE0hRwR2wKBa6fp9RXBuAHSst4UV9sDyhNl4JBfKiMlFvKAKygtE05azalim6I+28C3wMchLL9pKAdpVOcuAlCD0XKlaUgIIcLfSjdM0tBO0q3lXsNCZ8G98N3gcD5lkj4J5BCy2NC+V58+FxsEZTOgBxu50IMpUUghZaHhJz+ivWhNNntcKMNcD+K0qIIOfwfIXyND3XENprSTEmI5MKPlNrKAawhhA0Ui6FU2+0wB/i/mJKE9+bCfRD7MkpNJaEYF84TeuEtCb0pRSq2lVAKuB1wBP/2q5oZXFgjuAOE0i2SAGc4YLUR2gWSGGwntFCxC4RWuyEcXbl3X9Vs5kIfwd0nFA+yuJADlZHwh7IAfxL6WSmzjdBgNwRmN+ZcMKra81woKjZvJDxBGnpw4HVKjaThK0LnlSqOhCu7IzCtMt/C1c1zHtwEsVeg1EwawjgwlFC2VRr6EHquVBNCj8AtgbfCuPamusFgDqwVXAQhu480wC32PiV0BKSxFCEMVqgvoV/cFHiqAM9Gq5xaHBgjuEGELoE8xrO3mtA38gDPCNVR6GNC89wVuNvKsXkqpwsHIgQ3hdBmiZjJ3h5CIyXiEKFuCn1NaKDbAteY+LVJ5URxIERwXxOaLhF92DtHqKVELCP0nkIbCdV2X+Bn/DqgcmaylwqCX0eov0TUYy+ZUAmJ+IjQJIUSCAW6MXAEt86pnKXs/SG6Xwg1k4gQ9rLo5JkkoiehhQqdoJMO7gxHV17dUzkb2NsouqOESkgEPGfNC+leB4msR2iNQjfonHFrYHZjTmWpnN3szRHdFToOk0xcYS2M0AGZKEroZ4We0PnVvYFplbnkhSr3OHtjRPeQThrI5FHWKhPaKhNehH5XyEFnnZsDb4XxqKjaucbeANFl0LkqFbtYCyf0rUzACzpJCiHdWHcHnirAoXJq5y57HaTpD6mIE8dcqbjLmD+hGLcH7ra6XR6y11B0NjqJUrGYtaaEYqTiIp27ygQTinZ/4BoTd+qonQz2wkWHdH+TiljWIghNlIokDwJ+xp1wt0claYqXii/EES0Vp+k8U6Y0oVHuEBzBm3pqx8ZeObfMbHX2B50MZcoRGuYWcXTlTITaQfdcLKHqaiKJzlNlihCKdotgdmO+1FU7merpoKSVYy1Gzu4qE+xuwrTKXAlXO6nSl0knUSpWshYuabeEMVllnWqfzAjeCuNJbbVzUvoy6CRJxRZCYawtlopHdG4oYyI0V1XljrdAjWeM4KkCHCmndjZKXzqdFKnYRyhYmZqE1kuFnU6SMkDoOzV1uAoAQIscRnC31W3ykfTdppMtFWcI+ShTmtBumQhEuscVyqKzTT1ljTXDP/ZyMIJrTNwIUzsNpO8UHQyQiQd0XoKyAYROyUQVQrsVukfnkGraVx7+fSwr+Bk3vFROsln69hGqKRHeTjopCkE+nScy8TqhDQqdp3NXJWUMN8GrzmcFR/ACstTNfJC+Hwl1kYhKSPeCUo/oYIBEDCe0VKGDdOxWVfRzSXh101pWHF15kaxqbGXkbwWh0RLxOqFDSl0lVFMiZhH6XKGf6GBZFfR0IPxn772MYHY5E+dUzUqQv7mElknEOELblTpGqI9E7CAUrdBKQh3Uz9ZQUDDwLCM4FPNwQM2kh6qAUYR+l4hVhJYptYXQTIm4QaifQjGEPlY7qT1A2eJ3GVGfz8JGNfM2qIA3CT2TiBOEJir1BaF4efB3Emqi0DBCcSonrjAoXfUJI+rOczBPxXwDaqAOISwvDV7ZhAYoNY5Qsjw0Q8IlFXqD0DlVk9wZXNgsmxE9NzMwSr3ssqiCQpQGSkNjJNxCqR6EsKQ0TCCUb1aoKiFHQRXzbSC4tLuDEX1n/rqqlp99QBVAFqHl0vARpbJK1afUTxp2EroLCvsRwjdUy+024OooVtT4q6NWvrGASkgidF4adhCyWZUKprRUFsxphBKVggeEYlSKM9YfXP85K6rdBamTzH7gYpnaRAhLSILXc0LnQfH7hK7LQgMkvEyxA4SOqJOrTYGi6XtWpsob3Fchzu+LgnqYQWmoJEQg4R+V+x8hrCAJMyiNVmwxIUchVRIJNL0SGNFYetunOjK/rQqul6melLZJwgJKMcotpjRGEo5RilAsihD2U3EQcIoRDYWzWFXx8vSSnr5AUaaqUcryk4NblPooF0VpvxyUcVIKVawVpc1qDsJuMaI+9zWC0uIIua1XoyiQlSlrLiHsLwUNkXIN5ZpTcpaQgo+R8BNQvBClLD81B5XTGFF3dtWCUgKoRpmCPyhtl4IvKb2wKOdvJ4RjpeAkpd3KwQ1C2FvVQeNsRvTceCrgIJQf4o77ilJeEQnwSqV0EFx4htJpGaiBlGNcsJ7STnUHXRyM6DtzBEmEMMod148SfiwBvZDyXFcsp4T1JeBrUp1cMIaSvYS6g2GsqPH0LaVj7rhypK6ZxLePVHdXDCH1nfj8M0iFuKARJZyu8iCGFdWOhlLCam44SKWE7YRXHUkXd0VVUi+ChTcCKV8HF3rlUvrLqvJgNStT5acGqcXuuI2kdgtvFakb4NIHlHCC6MxXSa10BeynhP3VnuUXRjSWbsxplJ4XdMMNJYW1BFfcRmqZa34gdd9bcN2RdF+XTCR1Su2B/wlGNBReYBMl/NANV5rWWsF9gaR7uGYQKRwquOOknIVdUo8UtlN7EHqDEfW5l6Gkkr3db3CFlL2G0IrnkLIHuaYorbveQuuGpE+DS81ppA6rPqj4mBF1ZyelSeFQN9xiUrhZaIuR9B/g4vOkMEpkprO05roGNpHCjqoP6mcxoufGB1wlddfb/daBlrO2wCrYaE131Wxa9/wENgBpt3TRO7T+NKk+6JjPiL4zH4tI4Vj3m1c6KTwgsJ+QdjVX1aeFM8Tll0wr1eyioDxS+I76g3dZUeOjJa1HQW43WE0LuwurDdK+Ai6/RetlSWHFIO0V4Oqfad0voP5gOiuqXZgfkMIv3G9vErvlJyivS8Q+d91CWrhRVOWzibVz2bu0cJYbAJazMlUeYCktWzW3m08mLZwrqOlIvLbrmhDDDoLah7SfWlwWkk8rv6YbwBLPiMbSQzta+LvJ3QZriOXXFlK1PGLXwPWmW8Tu+AtpCBL/Flz/My08YVZ/4P8HIxoKB5ZUWjjC7daCGJ72EpD1OBKfSACmEcPFIiqVTq0xgR7E8CM3ABS5xoj6PD2YT+x5OXcbXCOGcwT0GRK3F6NQykEMO4jHfACJXwSCXo+I5dVxA0C5h4yoO6dXlRj+bna3TaTmaCGcZg5qu4DkbmoPCgtnAlL/iAJ8QQwv+7kBoO5zRvTcJAdHiOE0d1sxOzFMCRNM2D2k/haN3tQwwSyYlvnU8kNJVKeGq90B0N7GCK4xkRtKzdHazQbbqOEBi1AsB5B6ihcN7/vU8DOxFE9F6j8CzURq+L47AAaxgp+RK5BBDB8Ud7M1I4cLhPIFkp8IRCeTc3YVic9RJN+ESDdytibuAJjICo6gBgup4TEf9xocI4fDBPI+ks8qRCXkJTV8ES4O00YkfxSImq9Tw8cV3AGwhBVHV2ql7dTwB5N7rQ89WzthdLDTWwpkl5HDeyWEMQvp96YCo8nhtcLuAMt2RjC7MTHYRA5jxFJ91A/H7r/IfnY1Yd6b/qrMepccZtYXROMsJO+sRKeKkxxeCBbEaKR/x0KmQDo5PO7vBgC/w4xgWmViDenhUHEUnXINXzlnUysVBlH0MO01IdTKQPqbgfBmeniioBCGIINRQDeGHh7wF0dos74jRkW+WdtfPqDQZUbwVhgtSKTnGCCIsMU5+N8PN1Vf3sn0MKWSAGqlIX1nDUo1nPTwgL8ABjoYSPYmFPiEHib4CqHI0K338V8dZxY1MUkGlLnPCJ4qQKsVPbR1E4FpZCYqu7yA2oL3GcD7tbhXJw0Z3Aik1zGAh4O4N9iBDL4PlCcxgAcK8K/Jjzb8r9ejfOUC6mQygrutpCCBHtr68i/kN1T8UjW1Zb3JAKbV4VyTTGTQXolWJTsDeCKEc6ORxZtWUgFPGMATwZyr+gsqerubXEBbGyO4xkSqCQPoGMK7KjfQhWkNVRZEsoCZ7bn2VjayGAfEv2cBr5bnmWkOMhkJtCewgJfL8cwyMQ+VXl1AKqA/K/gZKUhgAHES3xqkoUsz66gs8xkW0PYux8Y4kMXs0tRKvmQBHzXgl/cGZDLJQsznNgv4qDG/gn5FFyYVkwr4mBUcQaq2gwX8xotj7Z6ji++XUFfQignERVZO+XyHbMYA+elMYPYgXpU4hmxGAPWeTGDOEF5VuoIuvV1KKiCWFUdXSrCCCTwQwq0BNnT5frO6gq1s4MEwLpU8gWwm+9Hzu8sE4mIvLrVIRTa3Af1EJhBX+HDpzWfo4kshUmH6kRHMbkwpNIMJvNOAT5b5SPEDlVUuhw28345Db6Yho/2BwX6M4PGK/LFMyUc2c8szUNvBBp6qyh/rAnT9bpNMgPfvjGBaZULwERuYN9rEocK7keSzwuoKPmMEnQu8OeP7DbL6u4kF00FG8MUg3pT6HVn9HFj8hhF8GWXiTOXjSPEjqYCgi4zgrTBCXlfZQPwljDstUpDoPJXlc4URxAsNudLqOrKaWw2YrJzLCGJ8SZ6Y3stEVq/6MhF4jxHEhHI8Mb2fhSSzSkoFlEphBE8VoAOtWMHHffni9ZkdqT4LUFfQ3MkKOhYV4EbQcmR3CjA6kRnMeM/MjSoHkVlnS2DzTWbw5UdWblQ+gFTXyAW8lsEI7rbSgeWsIO4sxZGaZ5DwIJUFS5hBvD/QxAXz8MfIbpKVFesZZhD/bMqHgvNtyO4yYHUzM4gX3uCD79QcJGsrIRfQKo8RXGOiE5jCDL6c5MMJ/zk2pPyz2iqYzA7iH8050OY0MmyvD8zWs7ODuKE8e9ZhD5Hh5EBmwp6yg7irBgd63kHK0yUD+jgZwc/oQDd2EG/1NfGgxx2knWVVWdDGyRDi7rqMNdmPTH8GDH/KEtqWF2fL3P8GsuxsB+z2ZgmdP1RiLOII0r4gGxDNCo6gA+sYQjzVkblGh5F8PbUF85hC/KUlQ+32INtHrSxZDrOEmLO8EjvekZeR7fnA8iqWEO3rajPUeg+SLykbsJAVR1c6gbdYQjzRw8xS43hkcLDq8jrFFuKxvt5M+Lx9ChnPKAdMl81gCtH5Y0s2ioy/h4yf9GIq4BpTiLi3s5kJa6/jyGA/6TBtZASzG5OBJnamEK+PLsiIqcNeZPJT1QWVsxhDTJ1TkVzlBWnIfH9gvD9jiHhxbAg1U8t1ech6ViVgu56NMcS/ppckV/LTFGRytnSA935GMK0yGZjGGOKL7+ozEDL2EjIaq75gMHOIeHxcCUIlPz6JHFwNzK9mDjHv5wEBhMLn/YUcHASsf8QcovNgVBihkOEHnMjoRvmAoHOM4K0wMpZDrCHi5SkVSfl025KLzK5RYbCUA4jOUzObWglYm886g1w86cue70n2EDF3T3Q1CgW6Lb+LXFwC7G9hDxEdx2Y0NBMwh3/yuwPZTZQQKPEXI3iqABUodp89RDw/s6mFRtjgjZnI8go15n2EB3/P2j+zUykXlOw0c38WcvJRaeBg6TQe/P3RTx+3ClbOUqXv1yftyMnfvThQ4DwP/v58z6cdirsg5I1J8enI9kkZgerpjOBuKxVoYuMBImbEj2/m65qy/ZYkOZHx+WoMij3kxD8++33NjMFta5X0+xef4jUj3pm2KjEdOZrfGrjYxs6Jf7yX8M2Evs2rF/X6lwKl67UfPmv9qWzk6L2iwMNKzzjxj08TV00b3LZWCd9/8S1WrfWAid8cuIccTJISaJHDCK4xUYH3OPF3+8WN0/vXL2r6LyE1uoxbcvAZ8nCcKoOmNo686suMjIwXyOUxwMkPefKqmRkZGTnI49yGwMdODo686suMjIwM5OphOYGeDkbwMzKwmh//mn///OFf4nesjY//5fC55FzkaAd1Bm9zid+LgZvLucRtZ2/g5RgucXi3pMBoVnAEGe9E3nA8TKXBFInabuGH5VeJigZ+LpKiJbICc1lxdKUCwVck6SKoNfhOmo76A0cLnJamWOCoeZsMjZYW01pGMLsxFSiXKkcL1JtltyRdLwJcLXZXkraZeQJ+RyUoXFrAew8jmFaZCtR/KUW11Bv4/yFFKWWAs5VSpWi/N/C18AXpeWSSFyh4hhG8FUYFOtsk6BioOAg6IUEplYC7tdIk6IA/8Db0muwsBomBYncYwVP+VKC7Q37eVHUQekF60qoBhxtkSs+JAsDfUjclp57UQNUnjOA2ExUY6JCdYyZ1B6E3JSetFnC5cbbknAgCHldMkZoEkBtoms0IfkwG3pMcR11QeVDqqtSk1QJOR2RKzYkg4HOlFIlxNpId6OZgJK8mGRgpN3NA9UHoBYlJqQLcbvxMYg4EAK/L3JSX70B64H1G8BAdGOaQmMNWNwAUOiEtN8sCx2ulScsuf+B3qYuycidYgmAmI9idDgzMl5abRUA6rHX7RI0b0q6YUCAoUVIuFAeuV0uRlE3ewPPQJDnJawAyZFrDyHFC0M0mKSmlQDKsfXZm4T9fmVVOIOC/Q0p+DwHOl7siJV9bgO9BB2TE0Q+kCKy72cBGhKD9cym5XAYko/9tfGX7mqLiAEushKz3Bu4XSpQPx1jgvvcPEjISJAkKnGLjS0oQniIhR4JBLgrvwr/f/vGred8dzkNETH9LHADRDtmYaQIBem+QjZfdQICmmbLxsgdIE4TdZOIGKSh1Tjo2+oJcVLiOiLYVNeEfA4bfRET8SCDQM1sqbENAjKY5cvGwPojxXZtUpNQDiYJKaSxgMVIQtEcypptALorfRMSTVeEVvWY6ETFKIFD7tkSkNAZh9suSiMPFQJTNHkrEqeIgVdAwm4VOtMArViay+wHr3LEeQcRdPvDqPWyI9hYCgZDd0nCwKAi05k1p+NoLxFn8qDSs9gXJgs4OBsYSA3gnWxru1AfZGI+Ih7wB/GtFdOvd/61wHwCAYYh43UcgYJklCV9aQajBv8jBy4EgVO9lcpDzLlCUDRjGwExyEH5bEn4NAdkokoWYWRLgbfzXrDUlAGArIkaLBKBrmgQ87QmiNU/Jl4ALtUC0A59LwM06IGPwKb1YehDyqww4pppAOmYg4mQAiPw3xIveAGVsiMlmoUDxfcLbXxIE3Oim8L72BfFW+EN4awOBZg9CvQQBKwUApjG5wktpC1xcQiiMxA3ErMB/aRJaue8dROwJABsRsY1YwPRJntDyxptByAHfiy21EwjZ+plDaE/7ANUOhDqJwvILtc9YAKh5XnCbCwEf5xMKoFAJEbfCvwQDQGtEnA0A3RBxnmAA6iYJLKkuCLt3msC2h4Kom18X2N6SQLYOoXBRgP9xYmPYAN/FToFlDARejqeTAxTfRsSRr1YFEScCQBAi7hcOWCfnCip3khUEXnitqO53B4H7zrULKn2oCegWIFRQGBB6nVZbRgBaXBXWrjLAzR50LpCYhohtXil4O+KzUgAAKYg3xQNQ5ZCQDlYGwXe4K6QVgSD28FNC2lwUSF8lcwMEWuERJWdhZsDn83whpfYBjlais5nEl4gY/m+//nYqB/F8Pfh7EuIzEYFpxGPhpEaaQPgB8/OEc6Y5CN8anSGcW12A+Eoyq0QC9bMInQaWa/0hHufKYODqfTJRJBa+2j/erg3/9lRIAEELbULJnVsQpLBSvFhSh5pBBkOXO4TyfKIPUO9KpptQoIONzlSmwDQgRTBHGgBnV5EpS2IKIr7xb/G/nkPE7Ib/cA/xuqAAKu0UyNbyII1tz4sjb25BkMXaB8ThXFkU6Hs9JfLUWywQScZRki0A/5hsgdztZwLetqFyFEj2RsSP/g0AWuYhHvpbECImCAugdaIgEpqATJqH3BSDbUUZkMmOxwWxrQYwOZPIbBDtVCqbgf1SK+yCeDLBD/hrukykP42yiPjLK8E2RCwFAG8h4ucCA4hIFEBiU5BNa+RN/tnjyoBsdjkrgPi6wGiRFyReFBEOLKfhrMEBgEpxdgFkTA4ALg+kcdNKAy4j5oW90nBEHAQAWxCxudAA2v+Pc7sjQEatwy/zLWdlJZBQU/ejfLP/2BDY/YjEeBCv5ScS3wAnK8Xlcy5tRjBw2nycxJtAdCIizn+lcoi4AqCCHfG2SXAAteNs3MpZWQNk1dRpH78ezQgFWW28xc6trCXlgWXraQKnvQQE/kcJPCjEC4BS859x7HqUH/C7Th6BbUA1OAMxt/qrwFXEGwC/IuJIkMBiM+9z6a9poSC1tVZlcenUUB+Q2bIL07h07eMQYLxipsueVwQhF77qMkc74GnAmBt8cu7tYQauj3HdnUJk4ENEvBgE4TExMf/QNiYmJvQTRLziLQMAli7bbZzJ2/yGGaS34LCjvHnyVS2QXu9evzo4k7cxwgTst7e5yNYRBF3uoasmAmdNbdZmcyd1TgXg/ipXZdYBupbfEfFEYXj10Q7E/KYgjaEfHueH8/DoEJDkanNv8SNne29vkOOSk07zw7FvWDDwcYDDJY6BIOzwTNcsAQ4Hvn+MJ9mbe3iBAC07XJPdCigXv4mIye1fJWg1ImIUSGWpsYedHHDsH10CpLrO51d5kLW5fwDIdMUJx3mQf2BsGPCzh80Ftl4g8LaZrlho4hEAlIk+7ORC7s8DAkCQlu9dkd4UaFe4joj4v94B/1DlsyeIiB+BdIYNXveQqQc/vBMKEl513C9ZTF2K7eIH8l16+I9PmHoU1zsQ+NokWbGUZiD08L8Uyx0BHC8RtTOTsZRvu/mDQE2T7IpdqALUC/+Kf88//0v8/hT8+7MeIKWm2h/FpzLxMP7DmiDv3q0/P/CCiWtrh5QEaTfXn/TbEyZSN4+saQL+Flmv0OYwEHzwRoWO1QbOW5t/ejSPkbTt0XVAuM0uKmP/yg/omwYm4ys71hUHiS3bb9GhdELphxb1Kwvyb6k5YuWZbELJu2M6hYD8Vx649GgGofR98/pVAm63+V2B4+1AAiP+VODKEDOI0KfxuI23aOWd/O7910wgZOsHyQrsrANseg3YnfMvN+dVAvkt1mb00t8uZrrkxaXd33zQthioSXOFruPX7L+R65K00zsWDW0SCGqy5BvR3yZcyXLJy2u/xY5qVxp433R52itlrG4FkthidforZW3qYgaBBjcftijhL7vLcs5vnz2krheI3LvvrtxXurfwNWDYu8GAsdEjOpYEmQ6q2b7/yClfrF4fH5+QmJi4Nz5+45ovp40a0KF2MKjYog06vzN2xtdxm+Pj/5eYmPhbfPzalfMnvdenbVVfUK8hdToOGD3ty+83xcfvTUxM3B8fv23Vl9PHDmpfPQiEaao5fOHWhMR9278a1cACEmkJf/+LH/ck7vvp67FNrCBia+nm/Scu+n7n4YspGRk5/5Cb8ezO2YPxa+aN6dm4pBmk0Lflh0t27Ev8bcvcyMogmQA=;container=0;fontColor=#000000;" parent="1" vertex="1">
                    <mxGeometry x="144.51" y="503.5" width="94.67" height="81" as="geometry"/>
                </mxCell>
                <mxCell id="629" style="edgeStyle=none;html=1;strokeColor=#000000;" parent="1" source="310" target="583" edge="1">
                    <mxGeometry relative="1" as="geometry"/>
                </mxCell>
                <mxCell id="310" value="Users" style="outlineConnect=0;dashed=0;verticalLabelPosition=bottom;verticalAlign=top;align=center;html=1;shape=mxgraph.aws3.users;fillColor=#D2D3D3;gradientColor=none;strokeColor=none;container=0;fontColor=#000000;" parent="1" vertex="1">
                    <mxGeometry x="-130" y="-39.87" width="69.99999999999997" height="64.26" as="geometry"/>
                </mxCell>
                <mxCell id="332" value="AWS Cloud" style="points=[[0,0],[0.25,0],[0.5,0],[0.75,0],[1,0],[1,0.25],[1,0.5],[1,0.75],[1,1],[0.75,1],[0.5,1],[0.25,1],[0,1],[0,0.75],[0,0.5],[0,0.25]];outlineConnect=0;gradientColor=none;html=1;whiteSpace=wrap;fontSize=12;fontStyle=0;container=1;pointerEvents=0;collapsible=0;recursiveResize=0;shape=mxgraph.aws4.group;grIcon=mxgraph.aws4.group_aws_cloud_alt;strokeColor=#232F3E;fillColor=none;verticalAlign=top;align=left;spacingLeft=30;fontColor=#232F3E;dashed=0;" parent="1" vertex="1">
                    <mxGeometry x="-20" y="-279.87" width="1090" height="699.87" as="geometry"/>
                </mxCell>
                <mxCell id="377" value="VPC" style="points=[[0,0],[0.25,0],[0.5,0],[0.75,0],[1,0],[1,0.25],[1,0.5],[1,0.75],[1,1],[0.75,1],[0.5,1],[0.25,1],[0,1],[0,0.75],[0,0.5],[0,0.25]];outlineConnect=0;gradientColor=none;html=1;whiteSpace=wrap;fontSize=12;fontStyle=0;container=0;pointerEvents=0;collapsible=0;recursiveResize=0;shape=mxgraph.aws4.group;grIcon=mxgraph.aws4.group_vpc;strokeColor=#248814;fillColor=none;verticalAlign=top;align=left;spacingLeft=30;fontColor=#AAB7B8;dashed=0;rounded=0;glass=0;" parent="332" vertex="1">
                    <mxGeometry x="240" y="92" width="770" height="338" as="geometry"/>
                </mxCell>
                <mxCell id="343" value="S3" style="points=[[0,0,0],[0.25,0,0],[0.5,0,0],[0.75,0,0],[1,0,0],[0,1,0],[0.25,1,0],[0.5,1,0],[0.75,1,0],[1,1,0],[0,0.25,0],[0,0.5,0],[0,0.75,0],[1,0.25,0],[1,0.5,0],[1,0.75,0]];outlineConnect=0;fontColor=#232F3E;gradientColor=#60A337;gradientDirection=north;fillColor=#277116;strokeColor=#ffffff;dashed=0;verticalLabelPosition=bottom;verticalAlign=top;align=center;html=1;fontSize=12;fontStyle=0;aspect=fixed;shape=mxgraph.aws4.resourceIcon;resIcon=mxgraph.aws4.s3;" parent="332" vertex="1">
                    <mxGeometry x="557" y="564" width="78" height="78" as="geometry"/>
                </mxCell>
                <mxCell id="471" value="&lt;span style=&quot;color: rgb(0, 0, 0);&quot;&gt;Cerificate&lt;/span&gt;&lt;br style=&quot;color: rgb(0, 0, 0);&quot;&gt;&lt;span style=&quot;color: rgb(0, 0, 0);&quot;&gt;Manager&lt;/span&gt;" style="points=[[0,0,0],[0.25,0,0],[0.5,0,0],[0.75,0,0],[1,0,0],[0,1,0],[0.25,1,0],[0.5,1,0],[0.75,1,0],[1,1,0],[0,0.25,0],[0,0.5,0],[0,0.75,0],[1,0.25,0],[1,0.5,0],[1,0.75,0]];outlineConnect=0;fontColor=#232F3E;gradientColor=#F54749;gradientDirection=north;fillColor=#C7131F;strokeColor=#ffffff;dashed=0;verticalLabelPosition=bottom;verticalAlign=top;align=center;html=1;fontSize=12;fontStyle=0;aspect=fixed;shape=mxgraph.aws4.resourceIcon;resIcon=mxgraph.aws4.certificate_manager_3;" parent="332" vertex="1">
                    <mxGeometry x="50" y="378.87" width="78" height="78" as="geometry"/>
                </mxCell>
                <mxCell id="437" value="&lt;span style=&quot;color: rgb(0, 0, 0);&quot;&gt;Route&amp;nbsp; 53&lt;/span&gt;" style="points=[[0,0,0],[0.25,0,0],[0.5,0,0],[0.75,0,0],[1,0,0],[0,1,0],[0.25,1,0],[0.5,1,0],[0.75,1,0],[1,1,0],[0,0.25,0],[0,0.5,0],[0,0.75,0],[1,0.25,0],[1,0.5,0],[1,0.75,0]];outlineConnect=0;fontColor=#232F3E;gradientColor=#945DF2;gradientDirection=north;fillColor=#5A30B5;strokeColor=#ffffff;dashed=0;verticalLabelPosition=bottom;verticalAlign=top;align=center;html=1;fontSize=12;fontStyle=0;aspect=fixed;shape=mxgraph.aws4.resourceIcon;resIcon=mxgraph.aws4.route_53;" parent="332" vertex="1">
                    <mxGeometry x="50" y="87" width="78" height="78" as="geometry"/>
                </mxCell>
                <mxCell id="624" style="edgeStyle=none;html=1;exitX=1;exitY=0.5;exitDx=0;exitDy=0;exitPerimeter=0;entryX=0;entryY=0.5;entryDx=0;entryDy=0;entryPerimeter=0;strokeColor=#000000;" parent="332" source="585" target="586" edge="1">
                    <mxGeometry relative="1" as="geometry"/>
                </mxCell>
                <mxCell id="585" value="SNS" style="points=[[0,0,0],[0.25,0,0],[0.5,0,0],[0.75,0,0],[1,0,0],[0,1,0],[0.25,1,0],[0.5,1,0],[0.75,1,0],[1,1,0],[0,0.25,0],[0,0.5,0],[0,0.75,0],[1,0.25,0],[1,0.5,0],[1,0.75,0]];outlineConnect=0;fontColor=#232F3E;gradientColor=#FF4F8B;gradientDirection=north;fillColor=#BC1356;strokeColor=#ffffff;dashed=0;verticalLabelPosition=bottom;verticalAlign=top;align=center;html=1;fontSize=12;fontStyle=0;aspect=fixed;shape=mxgraph.aws4.resourceIcon;resIcon=mxgraph.aws4.sns;" parent="332" vertex="1">
                    <mxGeometry x="806" y="564" width="78" height="78" as="geometry"/>
                </mxCell>
                <mxCell id="586" value="&lt;span style=&quot;background-color: rgb(255, 255, 255);&quot;&gt;Chatbot&lt;/span&gt;" style="points=[[0,0,0],[0.25,0,0],[0.5,0,0],[0.75,0,0],[1,0,0],[0,1,0],[0.25,1,0],[0.5,1,0],[0.75,1,0],[1,1,0],[0,0.25,0],[0,0.5,0],[0,0.75,0],[1,0.25,0],[1,0.5,0],[1,0.75,0]];points=[[0,0,0],[0.25,0,0],[0.5,0,0],[0.75,0,0],[1,0,0],[0,1,0],[0.25,1,0],[0.5,1,0],[0.75,1,0],[1,1,0],[0,0.25,0],[0,0.5,0],[0,0.75,0],[1,0.25,0],[1,0.5,0],[1,0.75,0]];outlineConnect=0;fontColor=#232F3E;gradientColor=#F34482;gradientDirection=north;fillColor=#BC1356;strokeColor=#ffffff;dashed=0;verticalLabelPosition=bottom;verticalAlign=top;align=center;html=1;fontSize=12;fontStyle=0;aspect=fixed;shape=mxgraph.aws4.resourceIcon;resIcon=mxgraph.aws4.chatbot;" parent="332" vertex="1">
                    <mxGeometry x="930" y="564" width="78" height="78" as="geometry"/>
                </mxCell>
                <mxCell id="630" style="edgeStyle=none;html=1;strokeColor=#000000;" parent="332" source="583" target="381" edge="1">
                    <mxGeometry relative="1" as="geometry"/>
                </mxCell>
                <mxCell id="583" value="Cloud Front" style="points=[[0,0,0],[0.25,0,0],[0.5,0,0],[0.75,0,0],[1,0,0],[0,1,0],[0.25,1,0],[0.5,1,0],[0.75,1,0],[1,1,0],[0,0.25,0],[0,0.5,0],[0,0.75,0],[1,0.25,0],[1,0.5,0],[1,0.75,0]];outlineConnect=0;fontColor=#232F3E;gradientColor=#945DF2;gradientDirection=north;fillColor=#5A30B5;strokeColor=#ffffff;dashed=0;verticalLabelPosition=bottom;verticalAlign=top;align=center;html=1;fontSize=12;fontStyle=0;aspect=fixed;shape=mxgraph.aws4.resourceIcon;resIcon=mxgraph.aws4.cloudfront;" parent="332" vertex="1">
                    <mxGeometry x="50" y="232.87" width="78" height="78" as="geometry"/>
                </mxCell>
                <mxCell id="623" style="edgeStyle=none;html=1;entryX=0;entryY=0.5;entryDx=0;entryDy=0;entryPerimeter=0;strokeColor=#000000;" parent="332" source="584" target="585" edge="1">
                    <mxGeometry relative="1" as="geometry"/>
                </mxCell>
                <mxCell id="584" value="CloudWatch" style="points=[[0,0,0],[0.25,0,0],[0.5,0,0],[0.75,0,0],[1,0,0],[0,1,0],[0.25,1,0],[0.5,1,0],[0.75,1,0],[1,1,0],[0,0.25,0],[0,0.5,0],[0,0.75,0],[1,0.25,0],[1,0.5,0],[1,0.75,0]];points=[[0,0,0],[0.25,0,0],[0.5,0,0],[0.75,0,0],[1,0,0],[0,1,0],[0.25,1,0],[0.5,1,0],[0.75,1,0],[1,1,0],[0,0.25,0],[0,0.5,0],[0,0.75,0],[1,0.25,0],[1,0.5,0],[1,0.75,0]];outlineConnect=0;fontColor=#232F3E;gradientColor=#F34482;gradientDirection=north;fillColor=#BC1356;strokeColor=#ffffff;dashed=0;verticalLabelPosition=bottom;verticalAlign=top;align=center;html=1;fontSize=12;fontStyle=0;aspect=fixed;shape=mxgraph.aws4.resourceIcon;resIcon=mxgraph.aws4.cloudwatch_2;" parent="332" vertex="1">
                    <mxGeometry x="681" y="564" width="78" height="78" as="geometry"/>
                </mxCell>
                <mxCell id="631" style="edgeStyle=none;html=1;strokeColor=#000000;" parent="332" source="381" target="434" edge="1">
                    <mxGeometry relative="1" as="geometry"/>
                </mxCell>
                <mxCell id="381" value="Internet&lt;br&gt;Gateway" style="outlineConnect=0;fontColor=#232F3E;gradientColor=none;fillColor=#4D27AA;strokeColor=none;dashed=0;verticalLabelPosition=bottom;verticalAlign=top;align=center;html=1;fontSize=12;fontStyle=0;aspect=fixed;pointerEvents=1;shape=mxgraph.aws4.internet_gateway;rounded=0;glass=0;labelBackgroundColor=#FFFFFF;" parent="332" vertex="1">
                    <mxGeometry x="201" y="233.13" width="78" height="78" as="geometry"/>
                </mxCell>
                <mxCell id="606" value="&lt;p style=&quot;line-height: 120%;&quot;&gt;&lt;span style=&quot;background-color: rgb(255, 255, 255);&quot;&gt;ECR&lt;/span&gt;&lt;/p&gt;" style="points=[[0,0,0],[0.25,0,0],[0.5,0,0],[0.75,0,0],[1,0,0],[0,1,0],[0.25,1,0],[0.5,1,0],[0.75,1,0],[1,1,0],[0,0.25,0],[0,0.5,0],[0,0.75,0],[1,0.25,0],[1,0.5,0],[1,0.75,0]];outlineConnect=0;fontColor=#232F3E;gradientColor=#F78E04;gradientDirection=north;fillColor=#D05C17;strokeColor=#ffffff;dashed=0;verticalLabelPosition=bottom;verticalAlign=top;align=center;html=1;fontSize=12;fontStyle=0;aspect=fixed;shape=mxgraph.aws4.resourceIcon;resIcon=mxgraph.aws4.ecr;textDirection=ltr;" parent="332" vertex="1">
                    <mxGeometry x="432.51" y="564" width="78" height="78" as="geometry"/>
                </mxCell>
                <mxCell id="614" value="IAM" style="points=[[0,0,0],[0.25,0,0],[0.5,0,0],[0.75,0,0],[1,0,0],[0,1,0],[0.25,1,0],[0.5,1,0],[0.75,1,0],[1,1,0],[0,0.25,0],[0,0.5,0],[0,0.75,0],[1,0.25,0],[1,0.5,0],[1,0.75,0]];outlineConnect=0;fontColor=#232F3E;gradientColor=#F54749;gradientDirection=north;fillColor=#C7131F;strokeColor=#ffffff;dashed=0;verticalLabelPosition=bottom;verticalAlign=top;align=center;html=1;fontSize=12;fontStyle=0;aspect=fixed;shape=mxgraph.aws4.resourceIcon;resIcon=mxgraph.aws4.identity_and_access_management;" parent="332" vertex="1">
                    <mxGeometry x="50" y="525" width="78" height="78" as="geometry"/>
                </mxCell>
                <mxCell id="643" value="Private subnet" style="points=[[0,0],[0.25,0],[0.5,0],[0.75,0],[1,0],[1,0.25],[1,0.5],[1,0.75],[1,1],[0.75,1],[0.5,1],[0.25,1],[0,1],[0,0.75],[0,0.5],[0,0.25]];outlineConnect=0;gradientColor=none;html=1;whiteSpace=wrap;fontSize=12;fontStyle=0;container=1;pointerEvents=0;collapsible=0;recursiveResize=0;shape=mxgraph.aws4.group;grIcon=mxgraph.aws4.group_security_group;grStroke=0;strokeColor=#147EBA;fillColor=#E6F2F8;verticalAlign=top;align=left;spacingLeft=30;fontColor=#147EBA;dashed=0;labelBackgroundColor=#CCE5FF;" parent="332" vertex="1">
                    <mxGeometry x="750" y="173.13" width="208" height="200" as="geometry"/>
                </mxCell>
                <mxCell id="652" value="EC2&lt;br&gt;( PostgreSQL )" style="points=[[0,0,0],[0.25,0,0],[0.5,0,0],[0.75,0,0],[1,0,0],[0,1,0],[0.25,1,0],[0.5,1,0],[0.75,1,0],[1,1,0],[0,0.25,0],[0,0.5,0],[0,0.75,0],[1,0.25,0],[1,0.5,0],[1,0.75,0]];outlineConnect=0;fontColor=#232F3E;gradientColor=#F78E04;gradientDirection=north;fillColor=#D05C17;strokeColor=#ffffff;dashed=0;verticalLabelPosition=bottom;verticalAlign=top;align=center;html=1;fontSize=12;fontStyle=0;aspect=fixed;shape=mxgraph.aws4.resourceIcon;resIcon=mxgraph.aws4.ec2;labelBackgroundColor=none;" parent="643" vertex="1">
                    <mxGeometry x="65" y="61.00000000000001" width="78" height="78" as="geometry"/>
                </mxCell>
                <mxCell id="434" value="ALB" style="outlineConnect=0;fontColor=#232F3E;gradientColor=none;fillColor=#4D27AA;strokeColor=none;dashed=0;verticalLabelPosition=bottom;verticalAlign=top;align=center;html=1;fontSize=12;fontStyle=0;aspect=fixed;pointerEvents=1;shape=mxgraph.aws4.application_load_balancer;" parent="332" vertex="1">
                    <mxGeometry x="342" y="234.13" width="78" height="78" as="geometry"/>
                </mxCell>
                <mxCell id="644" value="Public subnet" style="points=[[0,0],[0.25,0],[0.5,0],[0.75,0],[1,0],[1,0.25],[1,0.5],[1,0.75],[1,1],[0.75,1],[0.5,1],[0.25,1],[0,1],[0,0.75],[0,0.5],[0,0.25]];outlineConnect=0;gradientColor=none;html=1;whiteSpace=wrap;fontSize=12;fontStyle=0;container=1;pointerEvents=0;collapsible=0;recursiveResize=0;shape=mxgraph.aws4.group;grIcon=mxgraph.aws4.group_security_group;grStroke=0;strokeColor=#248814;fillColor=#E9F3E6;verticalAlign=top;align=left;spacingLeft=30;fontColor=#248814;dashed=0;labelBackgroundColor=#CCE5FF;" parent="332" vertex="1">
                    <mxGeometry x="490" y="173.13" width="200" height="200" as="geometry"/>
                </mxCell>
                <mxCell id="651" value="ECS Fargate&lt;br&gt;( Ruby on Rails )" style="points=[[0,0,0],[0.25,0,0],[0.5,0,0],[0.75,0,0],[1,0,0],[0,1,0],[0.25,1,0],[0.5,1,0],[0.75,1,0],[1,1,0],[0,0.25,0],[0,0.5,0],[0,0.75,0],[1,0.25,0],[1,0.5,0],[1,0.75,0]];outlineConnect=0;fontColor=#232F3E;gradientColor=#F78E04;gradientDirection=north;fillColor=#D05C17;strokeColor=#ffffff;dashed=0;verticalLabelPosition=bottom;verticalAlign=top;align=center;html=1;fontSize=12;fontStyle=0;aspect=fixed;shape=mxgraph.aws4.resourceIcon;resIcon=mxgraph.aws4.ecs;labelBackgroundColor=none;" parent="644" vertex="1">
                    <mxGeometry x="61" y="61" width="78" height="78" as="geometry"/>
                </mxCell>
                <mxCell id="654" style="edgeStyle=orthogonalEdgeStyle;rounded=1;jumpStyle=none;html=1;entryX=0;entryY=0.5;entryDx=0;entryDy=0;entryPerimeter=0;strokeColor=#000000;fontColor=#FFFFFF;" parent="332" source="434" target="651" edge="1">
                    <mxGeometry relative="1" as="geometry"/>
                </mxCell>
                <mxCell id="656" style="edgeStyle=orthogonalEdgeStyle;rounded=1;jumpStyle=none;html=1;strokeColor=#000000;fontColor=#FFFFFF;" parent="332" source="651" target="652" edge="1">
                    <mxGeometry relative="1" as="geometry"/>
                </mxCell>
                <mxCell id="657" style="edgeStyle=orthogonalEdgeStyle;rounded=1;jumpStyle=none;html=1;exitX=1;exitY=0.75;exitDx=0;exitDy=0;exitPerimeter=0;strokeColor=#000000;fontColor=#FFFFFF;" parent="332" source="651" target="343" edge="1">
                    <mxGeometry relative="1" as="geometry">
                        <Array as="points">
                            <mxPoint x="720" y="292"/>
                            <mxPoint x="720" y="438"/>
                            <mxPoint x="596" y="438"/>
                        </Array>
                    </mxGeometry>
                </mxCell>
                <mxCell id="659" style="edgeStyle=orthogonalEdgeStyle;rounded=1;jumpStyle=none;html=1;exitX=1;exitY=0.75;exitDx=0;exitDy=0;exitPerimeter=0;entryX=0.5;entryY=0;entryDx=0;entryDy=0;entryPerimeter=0;strokeColor=#000000;fontColor=#FFFFFF;" parent="332" source="651" target="584" edge="1">
                    <mxGeometry relative="1" as="geometry">
                        <Array as="points">
                            <mxPoint x="720" y="292"/>
                        </Array>
                    </mxGeometry>
                </mxCell>
                <mxCell id="653" style="edgeStyle=orthogonalEdgeStyle;rounded=1;jumpStyle=none;html=1;entryX=0;entryY=0.75;entryDx=0;entryDy=0;strokeColor=#000000;fontColor=#FFFFFF;entryPerimeter=0;exitX=0.5;exitY=0;exitDx=0;exitDy=0;exitPerimeter=0;" parent="332" source="606" target="651" edge="1">
                    <mxGeometry relative="1" as="geometry"/>
                </mxCell>
                <mxCell id="594" value="" style="shape=image;verticalLabelPosition=bottom;labelBackgroundColor=default;verticalAlign=top;aspect=fixed;imageAspect=0;image=data:image/svg+xml,PHN2ZyB4bWxuczp4bGluaz0iaHR0cDovL3d3dy53My5vcmcvMTk5OS94bGluayIgeG1sbnM9Imh0dHA6Ly93d3cudzMub3JnLzIwMDAvc3ZnIiBwcmVzZXJ2ZUFzcGVjdFJhdGlvPSJ4TWlkWU1pZCIgdmVyc2lvbj0iMS4xIiB2aWV3Qm94PSIwIDAgNTExLjY2MDIxNzI4NTE1NjI1IDE0Mi4wODY2ODUxODA2NjQwNiIgaGVpZ2h0PSIyMjIuMDEwNDQ1NTk0Nzg3NiIgd2lkdGg9Ijc5OS40NjkwODk1MDgwNTY2Ij4KICAgIDxnPgoJCQkJPHBhdGggZmlsbD0iI0MwMjQyOCIgZD0iTTU2LjExNTg4NDQsNDguNTUwOTU2NSBDNDQuNTMxMzI3OSw0OC41NTA5NTY1IDM0Ljc1NDM1NCw1Ny45NjczMDQzIDM0Ljc1NDM1NCw2OS45MTY5MzkxIEMzNC43MDI3NDI3LDc1LjU5ODAzNDEgMzYuOTM2NzQ4OCw4MS4wNjE0NjE3IDQwLjk1NDA1NTMsODUuMDc4NzY4MiBDNDQuOTcxMzYxOSw4OS4wOTYwNzQ4IDUwLjQzNDc4OTUsOTEuMzMwMDgwOSA1Ni4xMTU4ODQ0LDkxLjI3ODQ2OTYgQzY3LjcwMDQ0MDksOTEuMjc4NDY5NiA3Ny40NzI5NjI3LDgxLjg2MjEyMTcgNzcuNDcyOTYyNyw2OS45MTY5MzkxIEM3Ny40NzI5NjI3LDU3Ljk2NzMwNDMgNjcuNzAwNDQwOSw0OC41NTA5NTY1IDU2LjExNTg4NDQsNDguNTUwOTU2NSBMNTYuMTE1ODg0NCw0OC41NTA5NTY1IFogTTIyLjgwOTE3MTQsNjkuNTUxODYwOSBDMjIuODA5MTcxNCw1MS40NDkzMjE3IDM3LjY1MjcxOTIsMzYuNjA1NzczOSA1NS43NTUyNTgzLDM2LjYwNTc3MzkgQzczLjg1MzM0NTMsMzYuNjA1NzczOSA4OC42OTY4OTMxLDUxLjQ0OTMyMTcgODguNjk2ODkzMSw2OS41NTE4NjA5IEM4OC42OTY4OTMxLDcwLjYzODE5MTMgODguNjk2ODkzMSw3Mi4wODk2IDg4LjMzNjI2Nyw3My4xNzU5MzA0IEM4Ny45NzExODg4LDc2LjQzMDQ2OTYgOTAuNTA4OTI3OSw3OC45NjM3NTY1IDkzLjc2NzkxOTIsNzguOTYzNzU2NSBDOTkuMTk5NTcxNCw3OC45NjM3NTY1IDk5LjkyMDgyMzUsNzIuMDg5NiA5OS45MjA4MjM1LDY5LjU1MTg2MDkgQzk5LjkyMDgyMzUsNDUuMjkxOTY1MiA4MC4wMDYyNDk2LDI1LjM3NzM5MTMgNTUuNzU1MjU4MywyNS4zNzczOTEzIEMzMS40OTUzNjI3LDI1LjM3NzM5MTMgMTEuNTg5NjkzMSw0NS4yOTE5NjUyIDExLjU4OTY5MzEsNjkuNTUxODYwOSBDMTEuNTg5NjkzMSw5My44MTYyMDg3IDMxLjQ5NTM2MjcsMTEzLjcyNjMzIDU1Ljc1NTI1ODMsMTEzLjcyNjMzIEM2OC43ODY3NzE0LDExMy43MjYzMyA4MC4zNzEzMjc5LDEwOC4yOTQ2NzggODguMzM2MjY3LDk5LjI0MzQwODcgTDk3LjM4MzA4NDQsMTA2Ljg0NzcyMiBDODcuNjEwNTYyNywxMTguNDM2NzMgNzIuNDA2Mzg4OCwxMjUuNjgwNjg4IDU2LjExMTQzMjIsMTI1LjY4MDY4OCBDNDEuMjExOTE3MiwxMjUuNzI2NzU5IDI2LjkwOTYwNzIsMTE5LjgyNjkzIDE2LjM3NjA5NzgsMTA5LjI4OTI0MiBDNS44NDI1ODg0LDk4Ljc1MTU1MzIgLTAuMDUxNTY3MDM2MSw4NC40NDY5MDQyIDAuMDAwMzM5OTU1ODA0LDY5LjU0NzQwODcgQzAuMDAwMzM5OTU1ODA0LDM4Ljc3Mzk4MjYgMjQuOTc3MzgwMSwxMy40MzIyMDg3IDU2LjExNTg4NDQsMTMuNDMyMjA4NyBDODYuODg0ODU4MywxMy40MzIyMDg3IDExMS44NjYwMDYsMzguNzc4NDM0OCAxMTEuODY2MDA2LDY5LjU1NjMxMyBDMTExLjg2NjAwNiw4MS44NjY1NzM5IDEwNi4wNzM3MjgsOTIuMDA4NjI2MSA5NC4xMjg1NDUzLDkyLjAwODYyNjEgQzg5LjA1NzUxOTIsOTIuMDA4NjI2MSA4NS44MDI5ODAxLDg5LjQ3MDg4NyA4My45OTA5NDUzLDg2LjkzNzYgQzc4LjE5ODY2Nyw5Ni4zNTM5NDc4IDY3LjY5NTk4ODgsMTAyLjUwNjg1MiA1NS43NTA4MDYyLDEwMi41MDY4NTIgQzQ3LjAwMzg4OTIsMTAyLjUzNjU1MyAzOC42MDY2NTUsOTkuMDc0OTk2MyAzMi40MjE2MTUxLDkyLjg4OTk1NjMgQzI2LjIzNjU3NTEsODYuNzA0OTE2MyAyMi43NzUwMTgsNzguMzA3NjgyMiAyMi44MDQ3MTkyLDY5LjU2MDc2NTIgTDIyLjgwOTE3MTQsNjkuNTUxODYwOSBaIE01Ni4xMTE0MzIyLDU5Ljc3NDg4NyBDNjEuNTQzMDg0NCw1OS43NzQ4ODcgNjUuODg4NDA2Miw2NC4xMjAyMDg3IDY1Ljg4ODQwNjIsNjkuNTUxODYwOSBDNjUuODg4NDA2Miw3NC45ODM1MTMgNjEuNTQzMDg0NCw3OS4zMjg5MTc3IDU2LjExNTg4NDQsNzkuMzI4OTE3NyBDNTMuNTE5NjAyMyw3OS4zMzk1NDEyIDUxLjAyNjU2NTMsNzguMzEyOTA4NiA0OS4xOTA3MDEsNzYuNDc3MDQ0MyBDNDcuMzU0ODM2Nyw3NC42NDExOCA0Ni4zMjgyMDQxLDcyLjE0ODE0MyA0Ni4zMzg4Mjc2LDY5LjU1MTg2MDkgQzQ2LjMzODgyNzYsNjQuMTIwMjA4NyA1MC42ODQyMzIyLDU5Ljc3NDg4NyA1Ni4xMTU4ODQ0LDU5Ljc3NDg4NyBMNTYuMTExNDMyMiw1OS43NzQ4ODcgWiI+Cgo8L3BhdGg+CgkJCQk8cGF0aCBmaWxsPSIjMDAwMDAwIiBkPSJNMzU5LjUwNzE4OSw0Ny40ODI0MzQ4IEMzNjYuMzE5MDE1LDQ3LjQ4MjQzNDggMzcyLjgwNTIsNTAuMDY3NzA1IDM3Ny40NTQyNTEsNTQuOTM4MTk3IEwzNzguMjU1MjkzLDU1LjgyMTM1NjUgTDM3OC4yNTUyOTMsNDguOTMzODQzNSBMMzkxLjk1NDYzMiw0OC45MzM4NDM1IEwzOTEuOTU0NjMyLDEwNy42NDkxMTMgTDM5MS45MzEwNTIsMTEwLjUwMTcxMiBDMzkxLjc1NDMxNSwxMjAuNDY2Nzk4IDM5MC41NDI1NTEsMTI1LjE3MTAxNCAzODYuOTEwMzE5LDEzMC40ODg3NjUgQzM4MS44NjE1NTQsMTM4LjEwMTk4MyAzNzIuODQ1OTAyLDE0Mi4wODY2NzggMzYyLjc1MjgyNCwxNDIuMDg2Njc4IEMzNDUuNDY2MjksMTQyLjA4NjY3OCAzMzQuMzk2MTI2LDEzMS4zMzI2NTggMzMzLjkyMjk4NCwxMTMuOTAxMDAyIEwzMzMuOTA3MTg5LDExMi43MjkwNDMgTDM0Ny4yNDU5MDIsMTEyLjcyOTA0MyBMMzQ3LjQwMzYxLDExNC43MzYwNTIgQzM0Ny43MzE2NDMsMTE4LjQzMjczMyAzNDguMTczMjI2LDEyMC4zMzk3MTcgMzQ5LjQwOTY1OCwxMjIuNTE0OTIyIEMzNTEuOTM0MDQxLDEyNi44NjQ2OTYgMzU3LjM0MzQzMiwxMjkuNDAyNDM1IDM2Mi43NTI4MjQsMTI5LjQwMjQzNSBDMzcyLjUzMDQ5MywxMjkuNDAyNDM1IDM3Ny41NzQxOTMsMTIzLjYxOTcyMiAzNzcuODc5ODc2LDExMS43MjIzODUgTDM3Ny44OTQ2NjcsMTEwLjU1MTkzIEwzNzcuODk0NjY3LDEwMi4yMTc0NjEgQzM3Mi40ODUyNzYsMTA4LjM3OTI3IDM2Ni43MTUyNTgsMTEwLjkxNzAwOSAzNTkuMTQ2NTYzLDExMC45MTcwMDkgQzM0My4yODM0NjcsMTEwLjkxNzAwOSAzMzEuMzgyODA2LDk3Ljg2MzIzNDggMzMxLjM4MjgwNiw3OS43NDI4ODcgQzMzMS4zODI4MDYsNjAuODkyMzgyNiAzNDMuMjgzNDY3LDQ3LjQ4MjQzNDggMzU5LjUwNzE4OSw0Ny40ODI0MzQ4IFogTTQxMy45NDgzNzEsNDguOTMzODQzNSBMNDEzLjk0ODM3MSw4My4zNjY5NTY1IEM0MTMuOTQ4MzcxLDkzLjUxNzkxMyA0MTcuNTU0NjMyLDk4LjIyODMxMyA0MjUuNDg4NDA2LDk4LjIyODMxMyBDNDMzLjQ5MjQ5NCw5OC4yMjgzMTMgNDM3LjEzMDMzOCw5My44MzcxNjczIDQzNy4zNzE3MDYsODQuMzk3Njc4IEw0MzcuMzg0NjE1LDgzLjM2Njk1NjUgTDQzNy4zODQ2MTUsNDguOTMzODQzNSBMNDUxLjA4ODQwNiw0OC45MzM4NDM1IEw0NTEuMDg4NDA2LDgzLjczMjAzNDggQzQ1MS4wODg0MDYsOTMuMTUyODM0OCA0NDkuNjQ1OTAyLDk4LjIyODMxMyA0NDQuOTU3NzYzLDEwMy4zMDM3OTEgQzQzOS45MTM0NSwxMDguMzc5MjcgNDMzLjQyMjE4LDExMC45MTcwMDkgNDI1LjQ4ODQwNiwxMTAuOTE3MDA5IEM0MTcuOTE1MjU4LDExMC45MTcwMDkgNDExLjA2NzgxNSwxMDguMzc5MjcgNDA2LjM3OTY3NiwxMDMuMzAzNzkxIEM0MDIuMjY4NTM4LDk4LjQ4MjA4NyA0MDAuNDM1NjU2LDkzLjY2MDM4MjYgNDAwLjI2MjY0Niw4NS4xMTMxMDggTDQwMC4yNDkwMzIsODMuNzMyMDM0OCBMNDAwLjI0OTAzMiw0OC45MzM4NDM1IEw0MTMuOTQ4MzcxLDQ4LjkzMzg0MzUgWiBNMjQwLjE2NjY2Nyw0Ny4xMjE4MDg3IEMyNDcuMzM3MDEsNDcuMTIxODA4NyAyNTIuMjQ1Njk5LDQ5LjM5OTQ0NzEgMjU3Ljk1MTQ1NSw1NC44NzgzOTc5IEwyNTguOTEwMzE5LDU1LjgyMTM1NjUgTDI1OC45MTAzMTksNDguOTMzODQzNSBMMjcyLjYxNDExMSw0OC45MzM4NDM1IEwyNzIuNjE0MTExLDEwOC43Mzk4OTYgTDI1OC45MTAzMTksMTA4LjczOTg5NiBMMjU4LjkxMDMxOSwxMDIuNTgyNTM5IEMyNTIuNDIzNTAyLDEwOC4zNzkyNyAyNDcuNzM1MzYzLDExMC41NTE5MyAyNDAuNTIyODQxLDExMC41NTE5MyBDMjIzLjkzODQ5MywxMTAuNTUxOTMgMjEyLjAzNzgzMiw5Ny4xNDE5ODI2IDIxMi4wMzc4MzIsNzguMjkxNDc4MyBDMjEyLjAzNzgzMiw2MC41MzE3NTY1IDIyMy45Mzg0OTMsNDcuMTIxODA4NyAyNDAuMTY2NjY3LDQ3LjEyMTgwODcgWiBNMTg3LjE2MzUzNyw0Ny4xMjE4MDg3IEMyMDAuMTUxMjMxLDQ3LjEyMTgwODcgMjA2Ljk4OTAyNyw1NS4wMjMzOTM4IDIwNy4zMzk5MTcsNzAuNDk3Nzc1NSBMMjA3LjM1NDE0NSw3MS43NjkwNDM1IEwyMDcuMzU0MTQ1LDEwOS44MjYyMjYgTDE5My42NTAzNTQsMTA5LjgyNjIyNiBMMTkzLjY1MDM1NCw3Ni40Nzk0NDM1IEMxOTMuNjUwMzU0LDY0Ljg4MTUzMDQgMTkxLjEyNTk3MSw2MC41MzE3NTY1IDE4NC42MzQ3MDIsNjAuNTMxNzU2NSBDMTc2Ljk2NTQ3Myw2MC41MzE3NTY1IDE3My42NzQyOTMsNjUuNjIyODAxMiAxNzMuNDY5OTM5LDc3LjQ1MTE5OCBMMTczLjQ1OTc0NSw3OC42NTY1NTY1IEwxNzMuNDU5NzQ1LDEwOS40NjU2IEwxNTkuNzYwNDA2LDEwOS40NjU2IEwxNTkuNzYwNDA2LDc2LjExODgxNzQgQzE1OS43NjA0MDYsNjUuMjQ2NjA4NyAxNTYuODc1Mzk3LDYwLjE3MTEzMDQgMTUwLjc0NDc1NCw2MC4xNzExMzA0IEMxNDMuMDcxMjE3LDYwLjE3MTEzMDQgMTM5Ljc4NDA2Nyw2NS4yNjIxNzUxIDEzOS41Nzk5NzgsNzcuMDkwNTcxOSBMMTM5LjU2OTc5Nyw3OC4yOTU5MzA0IEwxMzkuNTY5Nzk3LDEwOS4xMDQ5NzQgTDEyNS44NjYwMDYsMTA5LjEwNDk3NCBMMTI1Ljg2NjAwNiw0OC45MzM4NDM1IEwxMzkuNTY5Nzk3LDQ4LjkzMzg0MzUgTDEzOS41Njk3OTcsNTQuMzY5OTQ3OCBDMTQ0LjYxNDExMSw0OC41Njg3NjUyIDE0Ny44NTk3NDUsNDcuMTIxODA4NyAxNTMuNjI5NzYzLDQ3LjEyMTgwODcgQzE2MC4xMjEwMzIsNDcuMTIxODA4NyAxNjUuODg2NTk3LDUwLjAyMDE3MzkgMTY5LjQ5Mjg1OCw1NS44MjEzNTY1IEMxNzMuODIwMzcxLDUwLjM4MDggMTc5Ljk1MTAxNSw0Ny4xMjE4MDg3IDE4Ny4xNjM1MzcsNDcuMTIxODA4NyBaIE0yOTcuNDkyODU4LDQ4LjkzMzg0MzUgTDI5Ny40OTI4NTgsMTA5LjEwNDk3NCBMMjgzLjc4OTA2NywxMDkuMTA0OTc0IEwyODMuNzg5MDY3LDQ4LjkzMzg0MzUgTDI5Ny40OTI4NTgsNDguOTMzODQzNSBaIE00OTAuMDI3MTE5LDQ3LjEyMTgwODcgQzUwNC40Mzg4MDYsNDcuMTIxODA4NyA1MTEuMzEyNjgyLDU1LjA0NDc2MzggNTExLjY0NzM2OCw3MC44OTQ4MDA2IEw1MTEuNjYwMjMyLDcyLjEyOTY2OTYgTDUxMS42NjAyMzIsMTA5LjEwNDk3NCBMNDk3Ljk1NjQ0MSwxMDkuMTA0OTc0IEw0OTcuOTU2NDQxLDc1LjM5MzExMyBDNDk3Ljk1NjQ0MSw2My43OTUyIDQ5NS40MzY1MTEsNTkuODA2MDUyMiA0ODYuNzgxNDg0LDU5LjgwNjA1MjIgQzQ3Ny42Nzc0MjUsNTkuODA2MDUyMiA0NzQuMzU0NDg5LDY0LjkzNTk1OTYgNDc0LjE3MjAzOSw3OC44NTI2NzE3IEw0NzQuMTY0MDI0LDEwOS4xMDQ5NzQgTDQ2MC40NjAyMzIsMTA5LjEwNDk3NCBMNDYwLjQ2MDIzMiw0OC45MzM4NDM1IEw0NzMuODAzMzk3LDQ4LjkzMzg0MzUgTDQ3My44MDMzOTcsNTQuMzY5OTQ3OCBDNDc5LjIwODMzNyw0OC45MzM4NDM1IDQ4My41MzU4NSw0Ny4xMjE4MDg3IDQ5MC4wMjcxMTksNDcuMTIxODA4NyBaIE0zMjMuODA5NjU4LDAgTDMyMy44MDk2NTgsMTA4LjczOTg5NiBMMzEwLjExMDMxOSwxMDguNzM5ODk2IEwzMTAuMTEwMzE5LDAgTDMyMy44MDk2NTgsMCBaIE0yNDIuNjg2NTk3LDU5LjQ0MDk3MzkgQzIzMy4zMTQ3NzEsNTkuNDQ1NDI2MSAyMjYuMTAyMjUsNjcuNzc5ODk1NyAyMjYuMTAyMjUsNzguNjU2NTU2NSBDMjI2LjEwMjI1LDkwLjI1NDQ2OTYgMjMyLjk1NDE0NSw5OC4yMjgzMTMgMjQyLjY4NjU5Nyw5OC4yMjgzMTMgQzI1Mi43ODQxMjgsOTguMjI4MzEzIDI1OS42MzE1NzEsOTAuMjU0NDY5NiAyNTkuNjMxNTcxLDc4LjY1NjU1NjUgQzI1OS42MzE1NzEsNjcuNzU5NzkzNCAyNTMuMTkyODM3LDU5LjkyNzQ5OTYgMjQzLjU5NTUwMSw1OS40NjI4MjE0IEwyNDIuNjg2NTk3LDU5LjQ0NTQyNjEgTDI0Mi42ODY1OTcsNTkuNDQwOTczOSBaIE0zNjIuMDMxNTcxLDU5LjQ0MDk3MzkgQzM1MS45MzQwNDEsNTkuNDQ1NDI2MSAzNDUuNDQyNzcxLDY3LjQxOTI2OTYgMzQ1LjQ0Mjc3MSw3OS4wMTcxODI2IEMzNDUuNDQyNzcxLDkwLjYxNTA5NTcgMzUxLjkzNDA0MSw5OC4yMjgzMTMgMzYyLjAzMTU3MSw5OC4yMjgzMTMgQzM3MS43NjQwMjQsOTguMjI4MzEzIDM3OC42MTU5MTksOTAuMjU0NDY5NiAzNzguNjE1OTE5LDc4LjY1NjU1NjUgQzM3OC42MTU5MTksNjcuNzU5NzkzNCAzNzIuNTEyMDk5LDU5LjkyNzQ5OTYgMzYyLjkzOTEyMSw1OS40NjI4MjE0IEwzNjIuMDMxNTcxLDU5LjQ0MDk3MzkgWiBNMjkwLjYzNjUxMSwxNS4yMjE5ODI2IEMyOTMuMDQ1MzE4LDE1LjIwMzg1MjMgMjk1LjM1NTgyMiwxNi4xNTQwMjkzIDI5Ny4wNTE4MTQsMTcuODU4Mzk2MyBDMjk4Ljc0NzgwNSwxOS41NjI3NjMzIDI5OS42ODY1ODksMjEuODc3OTE5NCAyOTkuNjU2NjE1LDI0LjI4MjE1NjUgQzI5OS42ODc3OTUsMjYuNjg3MTYwNSAyOTguNzQ5NTQ1LDI5LjAwMzQ3MjkgMjk3LjA1MzQyLDMwLjcwODgxMSBDMjk1LjM1NzI5NiwzMi40MTQxNDkxIDI5My4wNDYxLDMzLjM2NDkzNCAyOTAuNjQwOTYzLDMzLjM0Njc4MjYgQzI4NS41OTIxOTcsMzMuMzQ2NzgyNiAyODEuNjI1MzExLDI5LjM1NzYzNDggMjgxLjYyNTMxMSwyNC4yODIxNTY1IEMyODEuNTk1MzU1LDIxLjg3ODY5NzEgMjgyLjUzMzUzMSwxOS41NjQyMjk4IDI4NC4yMjg1NTQsMTcuODU5OTk1NiBDMjg1LjczNTI0LDE2LjM0NTEyMDcgMjg3LjcyNzMyLDE1LjQyNTYyNTIgMjg5LjgzOTUxOSwxNS4yNTE4ODQ0IEwyOTAuNjQwOTYzLDE1LjIyMTk4MjYgTDI5MC42MzY1MTEsMTUuMjIxOTgyNiBaIj4KCjwvcGF0aD4KCQk8L2c+Cjwvc3ZnPg==;" parent="1" vertex="1">
                    <mxGeometry x="425" y="-350" width="144.45" height="40" as="geometry"/>
                </mxCell>
                <mxCell id="600" value="" style="shape=image;verticalLabelPosition=bottom;labelBackgroundColor=default;verticalAlign=top;aspect=fixed;imageAspect=0;image=data:image/svg+xml,PHN2ZyB4bWxucz0iaHR0cDovL3d3dy53My5vcmcvMjAwMC9zdmciIHZpZXdCb3g9IjEuNDY0IDI1LjQ0NCA0OTguMTUyIDE0OS4yMyIgaGVpZ2h0PSI3NDkiIHdpZHRoPSIyNTAwIj48dGl0bGU+YmFja2dyb3VuZDwvdGl0bGU+PHRpdGxlPkxheWVyIDE8L3RpdGxlPjxwYXRoIGQ9Ik0xNzguNDYzIDgzLjk4N2MwLTE0LjgxOCAxMC44MDQtMjUuMTY1IDMwLjQzOC0yNS4xNjUgMTEuOTggMCAyMS43ODMgMy44MjUgMjcuMDk0IDcuNTcyLjc2LjUzNSAyLjExNiAxLjgzMyAxLjMwMyA0LjI0Ny0xLjA0MiAyLjYtMi45NTMgNi41MS00LjMyNCA5LjA1LS43OTggMS40OC0yLjgzNiAxLjI4NS0zLjg4Ljc1Ni0zLjc4My0xLjkxNy05Ljk4OC01LjE2LTE1LjY4OC01Ljc1OGEzMy4zNzggMzMuMzc4IDAgMCAwLTQuMzQ3LS4xODhjLTUuMDIuMTEyLTkuMjE0IDEuODU1LTEwLjY5MSA1LjY4NWE2Ljc0IDYuNzQgMCAwIDAtLjQ3NyAyLjI3NGMtLjEzOCA1LjA0NyA2Ljg4NiA2Ljg3MiAxNS4zOTUgOC4zMzQgMTUuODE5IDIuNzEgMjcuNzg3IDcuMzQ4IDI3Ljc4NyAyMy42MyAwIDEzLjgyNy0xMC45ODkgMjYuMzIzLTMyLjUyIDI1Ljk0LTE0LjE5NC0uMjg3LTI0LjI2NC01LjA4My0yOS42Ni05LjczNy0uMTg0LS4xNTgtMi4yMzgtMi4yNS0xLjEzNy00Ljc2NiAxLjI2LTMuMjM5IDMuMzg3LTYuOTUxIDUuMDU2LTguOTIyLjkyOC0xLjI2NiAzLjM3Ny0xLjQ2NyA0LjY1LS42NzggNC40NDggMi43NjQgMTEuNzY4IDcuMTk2IDIwLjIwNiA3LjQ5LjY2Ni4wMjMgMS4zMjYuMDI3IDEuOTc0LjAxIDcuNTktLjE4NCAxMi4xODItMy4wNjIgMTIuMDg2LTcuOTEtLjA4Mi00LjI3MS02LjEtNi43NjYtMTUuNjgzLTguNTcyLTE1LjI4NC0yLjg3OS0yNy41OC03LjkxNy0yNy41OC0yMy4yOTJNMzE3LjMxNiAxMDUuMDg2Yy0xMC43NzguMTQxLTIwLjY2IDMuMDg3LTIwLjk0NSAxMS41MS0uMDAzIDYuNjg0IDUuNDE5IDkuOTY3IDEzLjAyOSA5LjUzNyA3LjMtLjcwMyAxMi44NjctMy44NjkgMTUuMzItOC4wNy45MDctMS41NTcgMS4wNDUtNy4zODMuOTktOS44NzMtLjAxNC0uNTMtMS4wNjItMS41MzMtMS41MjEtMS43MjYtMi4yOS0uOTY1LTMuOTg1LTEuMjYzLTYuODc0LTEuMzhtLTM1Ljg2Mi0zMy45MzhjNS4wNC00LjUxIDE1LjAzMy0xMS41MyAzMC45NTktMTEuMTYgMjEuMDE3LjQzNyAzMi4xMiAxMC4yOSAzMy4xNTQgMzMuODYuNDI2IDkuNzItLjI4IDM2LjgzMi0uNDQ4IDQzLjU4Ny0uMDI1Ljk2OS0uMzUzIDEuNjM5LTEuNjU5IDEuNjY0LTMuNDYxLjEzOS0xMS40NTcuMDg0LTE1LjEzMS4wMzYtMS44NTQtLjA5LTIuMDY5LTEuMDEtMi4wOTMtMS45NzMtLjAxNi0uNjMtLjA3LTIuNDk4LS4xMDktNC4wMjEtLjAyMS0uODA4LS43OC0uNzg1LS45NzQtLjU3OC00LjkzIDUuMjY0LTEzLjAwNCA3LjgwNi0yMS41OSA3LjgwNi0xMy4wNSAwLTI2LjA2LTcuNjc3LTI2LjAyLTIyLjg4LjA0LTE1LjU3IDExLjA4LTIzLjI1IDIzLjIwOC0yNS4wNjEgNy43NjYtMS4xNTYgMTYuNTItLjEyOCAyMy4xNDkgMi41MDYuNDI0LjE3IDEuMjktLjA3NiAxLjI5Ny0uNjc3LjAyNy0xLjk4NC0uMDY5LTUuNzY1LS40NS03LjU1Ny0uOTczLTQuNTY2LTQuNzgyLTguMjQtMTIuNzg0LTkuMjMtMS42NDgtLjIwMy0zLjMwNy0uMjctNC45NjgtLjEzOC02LjM2MS41LTE0LjAxNiA1LjQ2LTE3LjE4NiA3LjMxNy0uNzQ2LjQzNi0xLjkxNC4xMTctMi4yOTItLjM3LTEuODUtMi4zOS02LjUtOS4zOC02Ljg2Ni0xMC40OTctLjM2Ni0xLjExNC4xNS0yLjA1Mi44MDEtMi42MzhsLjAwMi4wMDR6TTM1Mi40OTYgMTAwLjEzYy0uMTI1LTIxLjcxNSAxNS4wMDUtNDAuMDM0IDM5LjU3My00MC4xOTUgMTUuMzMtLjEgMjYuNDY3IDYuODUgMjguNDMxIDEwLjEyOC4zOTkuNzcuMTk0IDEuNDEzLS4wODIgMi4xODgtMS4yOTggMi43NC00LjU3NiA4LjAzNC02LjkxMiAxMS4wMzQtLjk5NSAxLjI3OC0yLjA3NS4xODMtMy4zMy0uNjUyLTMuNDgzLTIuMzItMTAuMTAxLTUuMTU3LTE2LjYxNC01LjE1Ny0xMS44MTYuMDAyLTIwLjYxNSA4LjEwNC0yMC41MTcgMjMuMDEuMDkyIDE0LjMwNCA4LjUyIDIyLjE2NSAyMC41NTggMjIuNDUgNi4yOTMuMTU4IDEyLjM5LTMuNDU5IDE1LjY3LTYuNDIyIDEuMDMtLjg5OSAyLjA5Ni0uNDQ5IDMuMjczLjQ3MSAyLjMxIDIuMzYxIDUuNjIzIDYuMDA2IDcuNDYgOC41MTUgMS4yMDMgMS4zOTQuMzAzIDIuNzU4LS4xMyAzLjMwNi00Ljk4NCA2LjMwNy0xNC42MSAxMS42MTUtMjcuMzQ5IDExLjY4Ny0yNi42NzQuMTg3LTM5LjkwNi0xOC41NjgtNDAuMDI5LTQwLjM2TTQ3OS44MjMgMTM5LjUxNGMxLjI1Mi0uMDk0IDE0LjYxMy0xLjkzOCAxOC43MTQtMi44NzcgMS4wMTgtLjIzMiAxLjM4LTEuMDg4LjgxMS0xLjkzNi0yLjI5LTMuNDM0LTguMzExLTEzLjE4Ni0xNC42MTctMjEuOTE2LTUuOC04LjAyNy0xMS45MTMtMTUuMDg3LTEzLjg5LTE3LjgwMy0uNDgyLS42Ni0uNDU2LTEuMzEuMDY5LTEuODIyIDMuNzYxLTMuNjggMTkuNDkzLTE5LjEwNSAyNS40MDgtMjUuNDc1IDIuMjktMi40NzguOTE1LTMuNTQ0LTEuMDMtNC4xMjMtMy43NTctMS4xMi05LjgzNC0yLjUxNi0xMy4yOS0zLjI0NS0xLjQ1Ny0uMzA4LTMuMjEyLS4yLTQuNDg2IDEuMTEtNS45MTQgNS41MTUtMjMuOTYzIDIzLjYzLTI5LjM1MSAyOS4wNDUtLjk3Ljk3Ny0xLjUzNS43Ni0xLjU0LS42MzYtLjA0NC0xMC40NC0uMjUtNTUuMTM4LS42MjMtNjIuNDktLjAyNi0uOTcyLTEuMTk1LTEuNzEtMS44NTQtMS43NDUtMy4zODgtLjE3Ny0xMS45NDctLjIyOC0xNS4zMi0uMDMtLjk0NS4xMDctMS44NDggMS4wNy0xLjkzIDEuODg0LS43NzggMTEuNzU2LjMzIDk4LjA1NC43OTIgMTEwLjEyNi4wMzMuODczLjY4MyAxLjU1IDEuNTEyIDEuNTk5IDMuMzY1LjE5NSAxMS42ODguMTgyIDE1LjU3NC4xMDkgMS45MTIgMCAyLjE0Ni0xLjM0NCAyLjE0Ni0xLjM0NGwuMjg4LTIzLjE1N3MuMTk3LTEuMDMuNTE2LTEuMzdjMS4zNy0xLjQ3NSA1LjE2LTUuNTM3IDYuNzc2LTcuMTA3LjM4OC0uMzc3IDEtLjM1IDEuMzk2LjE4MyAxLjkyIDIuNTkgNy4zOTUgMTEuMDEgMTIuNDcgMTguNTMgNC42NjMgNi45MDggOS4wMTYgMTMuMDM5IDkuMzIgMTMuNDcyLjcwMiAxIDEuNTIyIDEuMDQgMi4xNCAxLjAyMXYtLjAwM3pNMjUyLjU5IDEzOS40MzRjMS4xNzUuMDM5IDEwLjA5LjAyOSAxNC4wNC4wMjQgMS4zMy4wMjYgMi4wMjEtLjk4MSAyLjA2NS0xLjg3LjgzOS0xNi45MjYuNDgtOTcuNTEyLS4wNS0xMTAuMjM3LS4wNDQtMS4xLS41MTUtMS41MTMtMS4yNjYtMS42MTMtMy4zOS0uNDU0LTEzLjAyNC0uMzQ4LTE2LjExMi40Ni0uNjA0LjE1Ny0uOTYuNjE2LS45NzkgMS4yMDYtLjc1NiAzMi44LS4yNDYgMTA4LjQyLS4wODYgMTA5Ljg1Mi4xNTkgMS40MzQuOTA5IDIuMTI4IDIuMzkgMi4xNzhoLS4wMDJ6IiBmaWxsPSIjNDQzNjQyIi8+PHBhdGggZD0iTTEzLjk5NyAxMDUuNzhjLTUuNDk0LjA0Mi0xMC4xNDgtMy4yMzItMTEuODY0LTguMzQyYTEzLjY3IDEzLjY3IDAgMCAxLS4xNzgtLjU4M2MtMS44Ny02LjU0NCAxLjc1Ni0xMy4zOSA4LjI1NS0xNS41ODJMMTE0LjQ1IDQ2LjM1YTE0LjEyOCAxNC4xMjggMCAwIDEgMy44MDctLjU1NmM1LjY0LS4wNDQgMTAuNDIyIDMuMzAyIDEyLjE4IDguNTJsLjE1Ni41MDRjMS45NSA2LjgxNi0yLjg5NSAxMi45LTguNyAxNC44NS0uMDA0LjAwMy0xLjA2LjM2LTEwMy42NjIgMzUuMzkxYTEzLjQ5IDEzLjQ5IDAgMCAxLTQuMjM0LjcyMXoiIGZpbGw9IiM3MENBREIiLz48cGF0aCBkPSJNMzEuMzcyIDE1Ny4wNDVjLTUuNTM3LjA0LTEwLjIwNy0zLjE4OC0xMS45MDMtOC4yMjVhMTMuMzQgMTMuMzQgMCAwIDEtLjE4LS41NzljLTEuODk2LTYuNjIyIDEuNzI2LTEzLjU0IDguMjQ3LTE1LjczNUwxMzEuNzggOTcuMjYzYzEuMzQ3LS40NSAyLjczOC0uNjggNC4xMzctLjY5MyA1LjU1Mi0uMDQyIDEwLjQzIDMuMzUgMTIuMTUxIDguNDQ0bC4xNi41M2MxLjAwNyAzLjUyMS40MTIgNy40NzgtMS41OSAxMC42MDEtMS40OTIgMi4zMjItNi4xOTggNC4zNjYtNi4xOTggNC4zNjZMMzUuOCAxNTYuMjlhMTQuMzU2IDE0LjM1NiAwIDAgMS00LjQyOC43NTd2LS4wMDJ6IiBmaWxsPSIjRTAxNzY1Ii8+PHBhdGggZD0iTTExOC4xNDggMTU3LjI2OGExMi43OTggMTIuNzk4IDAgMCAxLTEyLjI1NS04LjcyM2wtMzQuNzktMTAzLjM0LS4xNzQtLjU4Yy0xLjg4NS02LjU5IDEuNzQtMTMuNDY0IDguMjM3LTE1LjY1NCAxLjMtLjQzNyAyLjY0NC0uNjY1IDMuOTk3LS42NzcgMi4wMS0uMDE1IDMuOTU1LjQzOCA1Ljc4NyAxLjM0M2ExMi43NzIgMTIuNzcyIDAgMCAxIDYuNDQ5IDcuMzkybDM0Ljc4NyAxMDMuMzMxLjEwMS4zMzJjMS45NTQgNi44NDItMS42NjMgMTMuNzItOC4xNiAxNS45MWExMi45MzUgMTIuOTM1IDAgMCAxLTMuOTc5LjY2NnoiIGZpbGw9IiNFOEE3MjMiLz48cGF0aCBkPSJNNjYuNDM1IDE3NC42NzRhMTIuODAzIDEyLjgwMyAwIDAgMS0xMi4yNi04LjczTDE5LjM5NCA2Mi42MDhhMTIuNzk3IDEyLjc5NyAwIDAgMSA4LjA1MS0xNi4yMyAxMi45NiAxMi45NiAwIDAgMSAzLjk4NS0uNjY4IDEyLjc5NiAxMi43OTYgMCAwIDEgMTIuMjU3IDguNzIzbDM0Ljc4MiAxMDMuMzRhMTIuNzk3IDEyLjc5NyAwIDAgMS04LjA2IDE2LjIzMyAxMi44OCAxMi44OCAwIDAgMS0zLjk3OC42NjdoLjAwNHoiIGZpbGw9IiMzRUI4OTAiLz48cGF0aCBkPSJNMTAwLjk5NyAxMzMuOTk2bDI0LjI1OC04LjI5NC03LjkzLTIzLjU1LTI0LjI4NiA4LjIwNyA3Ljk1OCAyMy42Mzd6IiBmaWxsPSIjQ0MyMDI3Ii8+PHBhdGggZD0iTTQ5LjM2NCAxNTEuNjVsMjQuMjU2LTguMjkzLTcuOTktMjMuNzMtMjQuMjggOC4yMSA4LjAxNCAyMy44MTN6IiBmaWxsPSIjMzYxMjM4Ii8+PHBhdGggZD0iTTgzLjcyNyA4Mi43bDI0LjI2LTguMjgzLTcuODM3LTIzLjI3NS0yNC4zMDUgOC4xNDNMODMuNzI3IDgyLjd6IiBmaWxsPSIjNjU4NjNBIi8+PHBhdGggZD0iTTMyLjA4OCAxMDAuMzNsMjQuMjYtOC4yODMtNy45MzMtMjMuNTcyLTI0LjMwNSA4LjE0MiA3Ljk3OCAyMy43MTN6IiBmaWxsPSIjMUE5MzdEIi8+PC9zdmc+;" parent="1" vertex="1">
                    <mxGeometry x="545.51" y="520.25" width="158.33" height="47.5" as="geometry"/>
                </mxCell>
                <mxCell id="601" value="" style="shape=image;verticalLabelPosition=bottom;labelBackgroundColor=default;verticalAlign=top;aspect=fixed;imageAspect=0;image=data:image/svg+xml,PHN2ZyB4bWxucz0iaHR0cDovL3d3dy53My5vcmcvMjAwMC9zdmciIGhlaWdodD0iNjA3IiB3aWR0aD0iMjUwMCIgdmlld0JveD0iLTQuMTI2ODM4OTc0ODEyOTQxIDAuOTAwNzY3NDQyNzQ2OTYxIDkzOS40MzY4Mzg5NzQ4MTMgMjMwLjE4MTQyODg5ODQ1OTQ3Ij48cGF0aCBkPSJNNjY3LjIxIDkwLjU4Yy0xMy43NiAwLTIzLjU4IDQuNy0yOC40IDEzLjZsLTIuNTkgNC44MlY5Mi45aC0yMi4zOXY5Ny44NmgyMy41NXYtNTguMjJjMC0xMy45MSA3LjU2LTIxLjg5IDIwLjczLTIxLjg5IDEyLjU2IDAgMTkuNzYgNy43NyAxOS43NiAyMS4zMXY1OC44aDIzLjU2di02M2MwLTIzLjMtMTIuNzktMzcuMTgtMzQuMjItMzcuMTh6bS0xMTQuMjEgMGMtMjcuNzkgMC00NSAxNy4zNC00NSA0NS4yNXYxMy43NGMwIDI2Ljg0IDE3LjQxIDQzLjUxIDQ1LjQ0IDQzLjUxIDE4Ljc1IDAgMzEuODktNi44NyA0MC4xNi0yMWwtMTQuNi04LjRjLTYuMTEgOC4xNS0xNS44NyAxMy4yLTI1LjU1IDEzLjItMTQuMTkgMC0yMi42Ni04Ljc2LTIyLjY2LTIzLjQ0di0zLjg5aDY1Ljczdi0xNi4yM2MwLTI2LTE3LjA3LTQyLjc0LTQzLjUtNDIuNzR6bTIyLjA5IDQzLjE1aC00NC4zOHYtMi4zNWMwLTE2LjExIDcuOTEtMjUgMjIuMjctMjUgMTMuODMgMCAyMi4wOSA4Ljc2IDIyLjA5IDIzLjQ0em0zNjAuMjItNTYuOTRWNTguMDdoLTgxLjQ2djE4LjcyaDI4LjU2VjE3MmgtMjguNTZ2MTguNzJoODEuNDZWMTcyaC0yOC41N1Y3Ni43OXpNMzE3LjY1IDU1LjM3Yy0zNi4zOCAwLTU5IDIyLjY3LTU5IDU5LjE4djE5Ljc0YzAgMzYuNSAyMi42MSA1OS4xOCA1OSA1OS4xOHM1OS0yMi42OCA1OS01OS4xOHYtMTkuNzRjLS4wMS0zNi41NS0yMi42NS01OS4xOC01OS01OS4xOHptMzQuNjYgODAuMjdjMCAyNC4yNC0xMi42MyAzOC4xNC0zNC42NiAzOC4xNFMyODMgMTU5Ljg4IDI4MyAxMzUuNjR2LTIyLjQ1YzAtMjQuMjQgMTIuNjQtMzguMTQgMzQuNjYtMzguMTRzMzQuNjYgMTMuOSAzNC42NiAzOC4xNHptOTguMzEtNDUuMDZjLTEyLjM2IDAtMjMuMDYgNS4xMi0yOC42NCAxMy42OWwtMi41MyAzLjlWOTIuOWgtMjIuNHYxMzEuNTNoMjMuNTZ2LTQ3LjY0bDIuNTIgMy43NGM1LjMgNy44NiAxNS42NSAxMi41NSAyNy42OSAxMi41NSAyMC4zMSAwIDQwLjgtMTMuMjcgNDAuOC00Mi45M3YtMTYuNjRjMC0yMS4zNy0xMi42My00Mi45My00MS00Mi45M3pNNDY4LjA2IDE0OWMwIDE1Ljc3LTkuMiAyNS41Ny0yNCAyNS41Ny0xMy44IDAtMjMuNDMtMTAuMzYtMjMuNDMtMjUuMTh2LTE0LjcyYzAtMTUgOS43MS0yNS41NiAyMy42My0yNS41NiAxNC42OSAwIDIzLjgyIDkuNzkgMjMuODIgMjUuNTZ6bTI5OC40Ny05MC45Mkw3MTkgMTkwLjc2aDIzLjkzbDkuMS0yOC40NGg1NC42NGwuMDkuMjggOSAyOC4xNmgyMy45Mkw3OTIuMDcgNTguMDd6bS04LjY2IDg1LjUzbDIxLjQ0LTY3LjA4IDIxLjIyIDY3LjA4ek0yMTIuNTkgOTUuMTJhNTcuMjcgNTcuMjcgMCAwIDAtNC45Mi00Ny4wNSA1OCA1OCAwIDAgMC02Mi40LTI3Ljc5QTU3LjI5IDU3LjI5IDAgMCAwIDEwMi4wNiAxYTU3Ljk0IDU3Ljk0IDAgMCAwLTU1LjI3IDQwLjE0QTU3LjMxIDU3LjMxIDAgMCAwIDguNSA2OC45M2E1OCA1OCAwIDAgMCA3LjEzIDY3Ljk0IDU3LjMxIDU3LjMxIDAgMCAwIDQuOTIgNDdBNTggNTggMCAwIDAgODMgMjExLjcyIDU3LjMxIDU3LjMxIDAgMCAwIDEyNi4xNiAyMzFhNTcuOTQgNTcuOTQgMCAwIDAgNTUuMjctNDAuMTQgNTcuMyA1Ny4zIDAgMCAwIDM4LjI4LTI3Ljc5IDU3LjkyIDU3LjkyIDAgMCAwLTcuMTItNjcuOTV6TTEyNi4xNiAyMTZhNDIuOTMgNDIuOTMgMCAwIDEtMjcuNTgtMTBjLjM0LS4xOSAxLS41MiAxLjM4LS43N2w0NS44LTI2LjQ0YTcuNDMgNy40MyAwIDAgMCAzLjc2LTYuNTFWMTA3LjdsMTkuMzUgMTEuMTdhLjY3LjY3IDAgMCAxIC4zOC41NHY1My40NUE0My4xNCA0My4xNCAwIDAgMSAxMjYuMTYgMjE2em0tOTIuNTktMzkuNTRhNDMgNDMgMCAwIDEtNS4xNS0yOC44OGMuMzQuMjEuOTQuNTcgMS4zNi44MWw0NS44MSAyNi40NWE3LjQ0IDcuNDQgMCAwIDAgNy41MiAwTDEzOSAxNDIuNTJ2MjIuMzRhLjY3LjY3IDAgMCAxLS4yNy42bC00Ni4zIDI2LjcyYTQzLjE0IDQzLjE0IDAgMCAxLTU4Ljg2LTE1Ljc3em0tMTItMTAwQTQyLjkyIDQyLjkyIDAgMCAxIDQ0IDU3LjU2VjExMmE3LjQ1IDcuNDUgMCAwIDAgMy43NiA2LjUxbDU1LjkgMzIuMjhMODQuMjQgMTYyYS42OC42OCAwIDAgMS0uNjUuMDZMMzcuMyAxMzUuMzNhNDMuMTMgNDMuMTMgMCAwIDEtMTUuNzctNTguODd6bTE1OSAzN2wtNTUuOS0zMi4yOEwxNDQgNzBhLjY5LjY5IDAgMCAxIC42NS0uMDZsNDYuMjkgMjYuNzNhNDMuMSA0My4xIDAgMCAxLTYuNjYgNzcuNzZWMTIwYTcuNDQgNy40NCAwIDAgMC0zLjc0LTYuNTR6bTE5LjI3LTI5Yy0uMzQtLjIxLS45NC0uNTctMS4zNi0uODFMMTUyLjY3IDU3LjJhNy40NCA3LjQ0IDAgMCAwLTcuNTIgMGwtNTUuOSAzMi4yN1Y2Ny4xNGEuNzMuNzMgMCAwIDEgLjI4LS42bDQ2LjI5LTI2LjcyYTQzLjEgNDMuMSAwIDAgMSA2NCA0NC42NXpNNzguNyAxMjQuM2wtMTkuMzYtMTEuMTdhLjczLjczIDAgMCAxLS4zNy0uNTRWNTkuMTRBNDMuMDkgNDMuMDkgMCAwIDEgMTI5LjY0IDI2Yy0uMzQuMTktLjk1LjUyLTEuMzguNzdsLTQ1LjggMjYuNDRhNy40NSA3LjQ1IDAgMCAwLTMuNzYgNi41MXptMTAuNTEtMjIuNjdsMjQuOS0xNC4zOEwxMzkgMTAxLjYzdjI4Ljc0bC0yNC45IDE0LjM4LTI0LjktMTQuMzh6Ii8+PC9zdmc+;" parent="1" vertex="1">
                    <mxGeometry x="630" y="-350" width="165.08" height="40" as="geometry"/>
                </mxCell>
                <mxCell id="616" style="edgeStyle=none;html=1;strokeColor=#000000;" parent="1" source="608" target="413" edge="1">
                    <mxGeometry relative="1" as="geometry"/>
                </mxCell>
                <mxCell id="608" value="Developer" style="outlineConnect=0;dashed=0;verticalLabelPosition=bottom;verticalAlign=top;align=center;html=1;shape=mxgraph.aws3.user;fillColor=#D2D3D3;gradientColor=none;fontColor=#000000;" parent="1" vertex="1">
                    <mxGeometry x="40" y="512.5" width="45" height="63" as="geometry"/>
                </mxCell>
                <mxCell id="627" style="edgeStyle=orthogonalEdgeStyle;html=1;entryX=0.5;entryY=1;entryDx=0;entryDy=0;strokeColor=#000000;exitX=0.75;exitY=0;exitDx=0;exitDy=0;exitPerimeter=0;" parent="1" source="651" target="594" edge="1">
                    <mxGeometry relative="1" as="geometry">
                        <mxPoint x="561.0000000000005" y="13.13000000000011" as="sourcePoint"/>
                    </mxGeometry>
                </mxCell>
                <mxCell id="655" style="edgeStyle=orthogonalEdgeStyle;rounded=1;jumpStyle=none;html=1;strokeColor=#000000;fontColor=#FFFFFF;exitX=0.75;exitY=0;exitDx=0;exitDy=0;exitPerimeter=0;" parent="1" source="651" target="601" edge="1">
                    <mxGeometry relative="1" as="geometry"/>
                </mxCell>
            </root>
        </mxGraphModel>
    </diagram>
</mxfile>
